<svg width="315" height="93" viewBox="0 0 315 93" fill="none" xmlns="http://www.w3.org/2000/svg">
<path d="M107.527 37.5688C106.943 37.1749 106.112 36.9852 105.032 36.9852H102.931V42.0333C103.223 42.0479 103.558 42.0624 103.923 42.0624C104.288 42.0624 104.594 42.0624 104.842 42.0624C105.382 42.0624 105.878 42.0187 106.316 41.9311C106.754 41.8436 107.133 41.6977 107.439 41.4934C107.746 41.2892 107.979 41.0266 108.154 40.691C108.315 40.3554 108.402 39.9615 108.402 39.4801C108.402 38.5901 108.11 37.9481 107.527 37.5688ZM107.629 32.5645C107.483 32.2727 107.264 32.0247 107.002 31.8496C106.724 31.6745 106.418 31.5432 106.053 31.4557C105.689 31.3827 105.309 31.3389 104.886 31.3389C104.58 31.3389 104.259 31.3389 103.923 31.3389C103.588 31.3389 103.267 31.3681 102.931 31.4411V35.7597H105.09C105.309 35.7597 105.557 35.7597 105.791 35.7888C106.024 35.8034 106.258 35.8326 106.462 35.8764C106.914 35.5992 107.264 35.2636 107.498 34.8843C107.746 34.5049 107.862 34.0818 107.862 33.6441C107.862 33.2064 107.789 32.8417 107.644 32.5645M109.744 41.2308C109.496 41.7123 109.146 42.1062 108.694 42.4126C108.242 42.719 107.687 42.9378 107.06 43.0837C106.418 43.2296 105.718 43.288 104.959 43.288C104.127 43.288 103.31 43.288 102.508 43.288C101.691 43.288 100.845 43.2588 99.9401 43.2442V42.1938H101.312V31.4557H99.9401V30.4198C100.626 30.3468 101.414 30.2739 102.304 30.2155C103.194 30.1572 104.084 30.1134 104.988 30.1134C105.572 30.1134 106.141 30.1718 106.681 30.2739C107.22 30.376 107.702 30.5657 108.11 30.8137C108.519 31.0763 108.854 31.4119 109.088 31.8496C109.321 32.2727 109.438 32.8125 109.438 33.4691C109.438 34.0672 109.307 34.5925 109.015 35.0593C108.738 35.5262 108.358 35.9056 107.906 36.2411C108.563 36.4891 109.103 36.8685 109.511 37.3791C109.92 37.8898 110.124 38.5755 110.124 39.4509C110.124 40.1512 109.993 40.7348 109.759 41.2162" fill="white"/>
<path d="M120.278 43.1712C119.87 43.2295 119.447 43.2879 119.024 43.3462C118.586 43.39 118.148 43.4338 117.711 43.463C117.273 43.4921 116.85 43.5067 116.456 43.5067C114.88 43.5067 113.728 43.1128 112.969 42.3396C112.21 41.5663 111.831 40.4137 111.831 38.911V31.4118H110.649V30.3759H113.436V38.7213C113.436 39.8593 113.669 40.7201 114.151 41.2891C114.632 41.8581 115.435 42.1499 116.573 42.1499C117.127 42.1499 117.681 42.1207 118.25 42.0769C118.805 42.0332 119.33 41.9602 119.782 41.8581V31.3972H118.571V30.3613H121.373V42.9523C121.052 43.0253 120.687 43.0982 120.278 43.1566" fill="white"/>
<path d="M131.512 43.2442H122.788V42.1937H124.159V31.3973H122.788V30.376H127.325V31.3973H125.778V42.077H130.374L130.724 40.5451H131.702L131.512 43.2442Z" fill="white"/>
<path d="M140.835 43.2442H132.111V42.1937H133.482V31.3973H132.111V30.376H136.634V31.3973H135.087V42.077H139.697L140.048 40.5451H141.01L140.835 43.2442Z" fill="white"/>
<path d="M141.419 43.2442V42.1937H142.79V31.3973H141.419V30.376H145.752V31.3973H144.395V42.1937H145.752V43.2442H141.419Z" fill="white"/>
<path d="M155.119 34.3007C154.944 33.615 154.71 33.0605 154.389 32.6374C154.083 32.2143 153.704 31.9079 153.28 31.7037C152.857 31.514 152.376 31.4119 151.865 31.4119C151.355 31.4119 150.859 31.514 150.421 31.7037C149.983 31.8934 149.604 32.1997 149.297 32.6374C148.976 33.0605 148.743 33.615 148.583 34.3007C148.407 34.9864 148.335 35.818 148.335 36.7955C148.335 37.773 148.422 38.6338 148.583 39.3196C148.743 40.0053 148.991 40.5597 149.297 40.9828C149.604 41.4059 149.983 41.7123 150.421 41.902C150.859 42.0916 151.34 42.1938 151.865 42.1938C152.39 42.1938 152.857 42.0916 153.28 41.902C153.704 41.7123 154.083 41.4059 154.389 40.9828C154.696 40.5597 154.944 40.0053 155.119 39.3196C155.294 38.6338 155.381 37.8022 155.381 36.7955C155.381 35.7888 155.294 34.9864 155.119 34.3007ZM155.673 41.8728C154.754 42.967 153.485 43.5068 151.865 43.5068C150.246 43.5068 148.947 42.967 148.028 41.8728C147.109 40.7785 146.657 39.0861 146.657 36.8101C146.657 34.5341 147.124 32.8271 148.028 31.7475C148.947 30.6678 150.231 30.1134 151.865 30.1134C153.499 30.1134 154.754 30.6678 155.673 31.7475C156.592 32.8271 157.059 34.5195 157.059 36.8101C157.059 39.1007 156.592 40.7931 155.673 41.8728Z" fill="white"/>
<path d="M168.994 31.3973V43.2588H167.52L160.634 32.9876L160.663 42.1937H162.034V43.2442H157.935V42.1937H159.306V31.3973H157.935V30.376H160.765L167.651 40.691L167.622 31.3973H166.265V30.376H170.365V31.3973H168.994Z" fill="white"/>
<path d="M184.867 33.3523H183.89L183.642 31.6453H180.928V42.1937H182.299V43.2442H177.952V42.1937H179.323V31.6453H176.726L176.391 33.3523H175.413L175.471 30.376H184.984L184.867 33.3523Z" fill="white"/>
<path d="M193.14 32.8562C192.95 32.506 192.702 32.2142 192.396 31.9808C192.089 31.7473 191.739 31.5868 191.36 31.4847C190.966 31.3826 190.572 31.3242 190.149 31.3242C189.842 31.3242 189.521 31.3242 189.142 31.3388C188.777 31.3388 188.442 31.368 188.15 31.3972V37.1164H189.302C189.901 37.1164 190.455 37.0726 190.951 36.9559C191.447 36.8538 191.885 36.6933 192.25 36.4598C192.614 36.2264 192.906 35.9346 193.11 35.5553C193.315 35.1759 193.417 34.7091 193.417 34.1401C193.417 33.6294 193.329 33.1917 193.14 32.8416M193.563 43.2441L190.63 38.2836C190.207 38.3273 189.726 38.3419 189.186 38.3419H188.15V42.2082H189.682V43.2587H185.174V42.2082H186.545V31.4264H185.174V30.4051C185.976 30.3175 186.808 30.2446 187.668 30.2008C188.529 30.157 189.361 30.1425 190.178 30.1425C190.82 30.1425 191.447 30.2154 192.031 30.3613C192.629 30.5072 193.14 30.7406 193.592 31.0616C194.044 31.3826 194.409 31.8057 194.672 32.3163C194.934 32.827 195.08 33.4543 195.08 34.1838C195.08 34.7091 195.007 35.1759 194.847 35.5845C194.701 35.993 194.496 36.3431 194.234 36.6641C193.971 36.9705 193.665 37.2331 193.3 37.4374C192.935 37.6416 192.556 37.8167 192.148 37.9334L194.715 42.2374H195.634V43.2879H193.548L193.563 43.2441Z" fill="white"/>
<path d="M201.66 31.6745H200.668L199.122 37.9773H203.236L201.66 31.6745ZM202.988 43.2442V42.1937H204.286L203.513 39.1736H198.859L198.1 42.1937H199.428V43.2442H195.489V42.1937H196.685L199.632 30.376H202.9L205.906 42.1937H207.058V43.2442H202.973H202.988Z" fill="white"/>
<path d="M216.264 34.3153C216.046 33.6004 215.739 33.0313 215.375 32.6082C214.995 32.1851 214.557 31.8788 214.061 31.7037C213.565 31.5286 213.04 31.4411 212.486 31.4411C212.077 31.4411 211.669 31.4411 211.275 31.4411C210.881 31.4411 210.472 31.4702 210.078 31.4994V42.0041C210.37 42.0333 210.662 42.0478 210.954 42.0624C211.246 42.0624 211.61 42.077 212.063 42.077C212.515 42.077 213.055 42.0041 213.58 41.8582C214.12 41.7123 214.601 41.4643 215.039 41.0849C215.491 40.7056 215.841 40.1949 216.133 39.5238C216.425 38.8673 216.571 38.0211 216.571 36.9852C216.571 35.9493 216.454 35.0156 216.235 34.3007M217.796 39.9323C217.461 40.7348 217.023 41.3913 216.454 41.9019C215.885 42.4126 215.229 42.7773 214.485 43.0108C213.74 43.2442 212.967 43.3463 212.15 43.3463C211.143 43.3463 210.239 43.3463 209.436 43.3172C208.634 43.3026 207.861 43.2734 207.088 43.2442V42.1937H208.459V31.4119H207.088V30.376C207.934 30.3176 208.809 30.2739 209.714 30.2447C210.604 30.2155 211.567 30.2009 212.573 30.2009C214.382 30.2009 215.783 30.7553 216.775 31.8788C217.767 33.0022 218.263 34.7092 218.263 36.9998C218.263 38.1524 218.103 39.1299 217.767 39.9323" fill="white"/>
<path d="M219.153 43.2442V42.1937H220.525V31.3973H219.153V30.376H223.486V31.3973H222.115V42.1937H223.486V43.2442H219.153Z" fill="white"/>
<path d="M235.056 31.3973V43.2588H233.583L226.696 32.9876L226.725 42.1937H228.097V43.2442H223.997V42.1937H225.354V31.3973H223.997V30.376H226.813L233.699 40.691L233.685 31.3973H232.328V30.376H236.413V31.3973H235.056Z" fill="white"/>
<path d="M244.671 43.3463C244 43.463 243.343 43.5068 242.687 43.5068C241.899 43.5068 241.169 43.3901 240.498 43.142C239.827 42.894 239.258 42.5001 238.791 41.9603C238.31 41.4204 237.945 40.7347 237.682 39.8739C237.42 39.0277 237.288 37.9918 237.288 36.7955C237.288 35.5991 237.434 34.607 237.711 33.7608C237.989 32.9146 238.383 32.2289 238.864 31.689C239.345 31.1492 239.914 30.7553 240.571 30.4927C241.228 30.2301 241.913 30.0988 242.657 30.0988C243.445 30.0988 244.116 30.1571 244.656 30.2884C245.196 30.4197 245.707 30.6386 246.203 30.9304L245.969 33.3377H245.036L244.846 31.7766C244.51 31.6161 244.16 31.4994 243.795 31.4702C243.431 31.4264 243.066 31.4118 242.716 31.4118C241.578 31.4118 240.673 31.8787 240.002 32.7979C239.331 33.7316 238.995 35.0593 238.995 36.7809C238.995 38.5025 239.316 39.9177 239.973 40.8223C240.629 41.7268 241.563 42.1937 242.774 42.1937C243.212 42.1937 243.62 42.1645 244 42.1208C244.394 42.077 244.787 42.004 245.181 41.9019V38.2545H242.643V37.0727H246.655V42.8648C246.028 43.0691 245.371 43.2296 244.7 43.3317" fill="white"/>
<path d="M261.172 33.3231H260.238L260.049 31.762C259.713 31.6015 259.363 31.4848 258.998 31.4556C258.633 31.4118 258.269 31.3827 257.919 31.3827C256.781 31.3827 255.861 31.8495 255.176 32.7833C254.49 33.717 254.154 35.0447 254.154 36.7663C254.154 38.4879 254.475 39.9031 255.132 40.8077C255.788 41.7122 256.722 42.1645 257.919 42.1645C258.4 42.1645 258.867 42.1208 259.319 42.0332C259.771 41.9457 260.209 41.8144 260.632 41.6393L260.924 42.8794C260.428 43.0837 259.903 43.2296 259.378 43.3317C258.852 43.4338 258.342 43.4776 257.86 43.4776C257.058 43.4776 256.328 43.3609 255.672 43.1129C255.015 42.8648 254.446 42.4709 253.979 41.9311C253.512 41.3913 253.133 40.691 252.885 39.8447C252.622 38.9985 252.491 37.9627 252.491 36.7663C252.491 35.5699 252.637 34.5778 252.914 33.7316C253.206 32.8854 253.585 32.1997 254.081 31.6599C254.563 31.12 255.132 30.7261 255.788 30.4635C256.445 30.2009 257.145 30.0696 257.889 30.0696C258.677 30.0696 259.348 30.1425 259.888 30.2738C260.428 30.4051 260.939 30.624 261.435 30.9158L261.201 33.3231H261.172Z" fill="white"/>
<path d="M271.093 43.2004H262.266V42.1645H263.638V31.3681H262.266V30.3468H270.714L270.641 33.0459H269.678L269.415 31.514H265.243V36.0222H268.058L268.248 34.68H269.211V38.5025H268.248L268.058 37.1602H265.243V42.0332H269.94L270.305 40.5013H271.268L271.093 43.2004Z" fill="white"/>
<path d="M282.969 31.3681V43.215H281.496L274.609 32.9438L274.639 42.1645H276.01V43.2004H271.91V42.1645H273.267V31.3681H271.91V30.3468H274.726L281.613 40.6472L281.598 31.3681H280.226V30.3468H284.326V31.3681H282.969Z" fill="white"/>
<path d="M293.97 33.3085H292.978L292.73 31.6015H290.016V42.1645H291.402V43.2004H287.04V42.1645H288.411V31.6015H285.829L285.479 33.3085H284.516L284.559 30.3468H294.072L293.97 33.3085Z" fill="white"/>
<path d="M303.088 43.2004H294.262V42.1645H295.633V31.3681H294.262V30.3468H302.709L302.636 33.0459H301.673L301.411 31.514H297.253V36.0222H300.054L300.243 34.68H301.206V38.5025H300.243L300.054 37.1602H297.253V42.0332H301.936L302.301 40.5013H303.263L303.088 43.2004Z" fill="white"/>
<path d="M311.872 32.8124C311.682 32.4622 311.434 32.1704 311.128 31.937C310.821 31.7036 310.471 31.5431 310.077 31.441C309.683 31.3388 309.289 31.2805 308.866 31.2805C308.56 31.2805 308.239 31.2805 307.859 31.3096C307.495 31.3096 307.159 31.3388 306.867 31.3534V37.0726H308.02C308.618 37.0726 309.172 37.0143 309.669 36.9121C310.179 36.81 310.617 36.6495 310.982 36.4161C311.346 36.1972 311.624 35.8908 311.828 35.5115C312.032 35.1322 312.134 34.6653 312.134 34.0963C312.134 33.5711 312.047 33.148 311.857 32.7832M312.295 43.2003L309.362 38.2398C308.939 38.269 308.458 38.2982 307.932 38.2982H306.882V42.1645H308.414V43.2003H303.906V42.1645H305.277V31.368H303.906V30.3467C304.708 30.2592 305.54 30.1862 306.4 30.1425C307.261 30.0987 308.093 30.0841 308.895 30.0841C309.552 30.0841 310.165 30.1571 310.763 30.303C311.361 30.4489 311.872 30.6823 312.324 31.0033C312.776 31.3242 313.126 31.7473 313.404 32.258C313.666 32.7686 313.812 33.396 313.812 34.1255C313.812 34.6507 313.739 35.1176 313.579 35.5261C313.433 35.9346 313.228 36.2848 312.966 36.5912C312.718 36.8975 312.397 37.1456 312.047 37.3644C311.682 37.5687 311.303 37.7292 310.894 37.8605L313.462 42.1645H314.381V43.2003H312.295Z" fill="white"/>
<path d="M45.987 86.4737C23.5042 86.4737 5.28151 68.397 5.28151 46.0746C5.28151 23.7522 23.5042 5.67543 45.987 5.67543C68.4699 5.67543 86.6926 23.7668 86.6926 46.0746C86.6926 68.3824 68.4699 86.4737 45.987 86.4737ZM82.4469 17.2451C80.8858 14.5606 77.4281 11.0737 74.7435 9.52714L63.1738 2.83042C60.4893 1.26931 55.7476 0 52.6546 0H39.2903C36.1973 0 31.4556 1.26931 28.7711 2.83042L17.2014 9.52714C14.5168 11.0882 11.0445 14.5606 9.49796 17.2451L2.81583 28.844C1.26931 31.5431 0 36.2848 0 39.3925V52.7859C0 55.8935 1.26931 60.6498 2.81583 63.3343L9.49796 74.9332C11.0445 77.6177 14.5168 81.1047 17.2014 82.6512L28.7711 89.3479C31.4556 90.909 36.1973 92.1783 39.2903 92.1783H52.6546C55.7622 92.1783 60.4893 90.909 63.1738 89.3479L74.7435 82.6512C77.4281 81.0901 80.9004 77.6177 82.4469 74.9332L89.1291 63.3343C90.6756 60.6352 91.9449 55.8935 91.9449 52.7859V39.3925C91.9449 36.2848 90.6756 31.5286 89.1291 28.844L82.4469 17.2451Z" fill="white"/>
<path d="M74.3351 49.795C74.3351 51.8522 73.5326 54.8577 72.4967 56.6376L68.4846 63.5824C67.4487 65.3623 65.2456 67.5654 63.4657 68.6012L56.5063 72.6134C54.7264 73.6493 51.7063 74.4518 49.6491 74.4518H41.6101C39.553 74.4518 36.5329 73.6493 34.7529 72.6134L27.7936 68.6012C26.0136 67.58 23.796 65.3769 22.7747 63.5824L18.7625 56.6376C17.7266 54.8577 16.9242 51.8376 16.9242 49.795V41.756C16.9242 39.6989 17.7266 36.6934 18.7625 34.8988L22.7747 27.9541C23.8106 26.1741 26.0136 23.9711 27.7936 22.9352L34.7529 18.923C36.5329 17.9017 39.553 17.0847 41.6101 17.0847H49.6491C51.7063 17.0847 54.7264 17.8871 56.5063 18.923L63.4657 22.9352C65.2602 23.9711 67.4633 26.1741 68.4846 27.9541L72.4967 34.8988C73.5326 36.6788 74.3351 39.6989 74.3351 41.756V49.795ZM75.4585 33.7462L71.0086 25.9115C69.8706 23.8981 67.4195 21.4178 65.4499 20.2652L57.7465 15.7424C55.7768 14.5898 52.4358 13.6707 50.1452 13.6707H41.2454C38.9694 13.6707 35.6283 14.5752 33.6441 15.7424L25.9407 20.2652C23.9711 21.4178 21.52 23.8981 20.382 25.9115L15.9321 33.7462C14.7941 35.7596 13.9041 39.1444 13.9041 41.4642V50.5099C13.9041 52.8297 14.7941 56.2145 15.9321 58.2279L20.382 66.0626C21.52 68.076 23.9711 70.5563 25.9407 71.7089L33.6441 76.2317C35.6283 77.3989 38.9548 78.3035 41.2454 78.3035H50.1452C52.4358 78.3035 55.7622 77.3989 57.7465 76.2317L65.4499 71.7089C67.4341 70.5417 69.8706 68.076 71.0086 66.0626L75.4585 58.2279C76.5965 56.2145 77.4865 52.8297 77.4865 50.5099V41.4642C77.4865 39.1444 76.5965 35.7596 75.4585 33.7462Z" fill="white"/>
<path d="M32.404 44.4551C33.6733 44.4551 34.3298 44.7761 35.1031 43.5213C35.6429 42.6605 35.6721 41.3329 34.9864 40.5304C34.3736 39.8301 30.0988 39.0131 30.0988 39.9614V43.8861C30.0988 44.9366 31.5286 44.4405 32.404 44.4405M30.0988 52.6691C32.3748 52.7421 36.2119 53.0631 36.2119 49.795C36.2119 47.2855 33.8484 47.0083 31.8933 47.0083C29.9383 47.0083 30.0988 46.7749 30.0988 48.6278V52.6691ZM32.2435 55.2807C31.1201 55.2807 25.2841 55.7768 25.2841 54.7409C25.2841 54.4491 25.1382 52.8734 25.4155 52.8734C25.6635 52.8734 27.0495 53.0193 27.0495 52.7713V42.4417C27.0495 42.1353 27.21 39.7864 26.9182 39.7864C26.6264 39.7864 25.2841 39.9323 25.2841 39.655C25.2841 39.2028 25.0361 37.5103 25.503 37.452C28.5814 37.1164 32.2581 36.4599 35.2636 37.452C38.7213 38.5754 39.5676 42.9523 36.956 45.4618C39.1882 46.7019 39.9031 49.401 39.0861 51.7792C38.1086 54.6679 34.8842 55.3099 32.2435 55.3099" fill="white"/>
<path d="M42.6605 55.2224C42.6605 54.4638 42.2228 52.8735 43.1128 52.8735C44.0028 52.8735 44.4113 53.1945 44.4113 52.2607V44.4406C44.4113 43.1421 45.1554 40.0053 43.6381 40.0053C42.1207 40.0053 42.004 39.7572 41.683 41.3621C41.4204 42.7044 40.6472 42.2375 39.3778 42.2375C39.407 40.691 39.4362 39.1445 39.4654 37.598C39.4654 37.0727 41.8727 37.3645 42.325 37.3645H52.7129C52.6546 38.911 52.5962 40.4576 52.5524 42.0041C52.5378 42.5147 51.2248 42.2375 50.8162 42.2375C50.0284 42.2375 50.2326 41.1287 50.1305 40.443C50.0138 39.6405 47.4606 39.801 47.4606 40.2241V52.8297C47.4606 52.9756 49.1092 52.713 49.2551 52.8589C49.4886 53.0923 49.2551 54.7118 49.2551 55.0765C49.2551 55.3537 48.0734 55.2078 47.8253 55.2078H42.6751L42.6605 55.2224Z" fill="white"/>
<path d="M60.1391 55.5725C52.4066 55.5725 50.3494 44.3821 54.9014 39.2611C57.0023 36.883 60.7227 36.4745 63.5969 37.5249C65.9167 38.3711 65.158 39.4508 64.9392 41.6684C64.8662 42.4271 64.8371 42.2812 64.0638 42.2812C62.955 42.2812 62.8383 42.5292 62.7069 41.4058C62.5756 40.3699 62.7361 39.9468 61.5689 39.8009C60.0808 39.6259 58.6072 39.6988 57.4984 40.8514C55.3829 43.0545 55.3975 47.5189 56.4479 50.2035C57.7318 53.5008 61.3647 53.2235 64.0638 51.9834C64.1805 52.5378 64.8517 54.0989 64.6474 54.595C64.2972 55.4266 60.8978 55.5725 60.1391 55.5725Z" fill="white"/>
<path d="M100.494 65.6249V64.9683H101.589V56.6376H100.494V55.9956H103.573V56.6376H102.464V64.9683H103.573V65.6249H100.494Z" fill="white"/>
<path d="M109.19 65.6249V65.0413H110.138V61.7877C110.138 61.0145 110.007 60.4309 109.744 60.0515C109.482 59.6722 109.015 59.468 108.344 59.468C108.008 59.468 107.673 59.4825 107.322 59.5263C106.972 59.5701 106.651 59.6139 106.36 59.6722V65.0413H107.293V65.6249H104.58V65.0413H105.528V59.8619H104.623V59.2783C104.871 59.2199 105.134 59.1616 105.426 59.1032C105.718 59.0449 106.024 58.9719 106.345 58.9281C106.666 58.8698 107.016 58.826 107.366 58.7822C107.716 58.7531 108.081 58.7239 108.446 58.7239C109.321 58.7239 109.963 58.9719 110.386 59.4534C110.795 59.9348 111.014 60.6497 111.014 61.5689V65.0413H111.947V65.6249H109.234H109.19Z" fill="white"/>
<path d="M119.33 59.5409L116.748 65.6832H115.931L113.45 59.5409H112.517V58.9573H115.449V59.5409H114.37L116.383 64.6473L118.426 59.5409H117.317V58.9573H120.264V59.5409H119.33Z" fill="white"/>
<path d="M126.085 60.8395C126.012 60.5477 125.91 60.2851 125.75 60.0808C125.589 59.8619 125.399 59.7015 125.151 59.5847C124.903 59.468 124.612 59.4097 124.276 59.4097C123.97 59.4097 123.692 59.468 123.43 59.5556C123.167 59.6577 122.948 59.8036 122.744 60.0078C122.554 60.2121 122.394 60.4601 122.277 60.7665C122.16 61.0583 122.088 61.4231 122.058 61.817H126.173C126.173 61.4668 126.158 61.1459 126.085 60.8395ZM126.654 62.4152C126.406 62.4152 126.129 62.4152 125.852 62.4152H122.058C122.058 62.8091 122.102 63.1592 122.19 63.4948C122.277 63.8304 122.409 64.1076 122.598 64.3556C122.773 64.6036 123.021 64.7933 123.313 64.9246C123.605 65.0705 123.955 65.1289 124.364 65.1289C124.626 65.1289 124.903 65.0997 125.21 65.0267C125.516 64.9538 125.808 64.8517 126.085 64.7058L126.246 65.3039C125.939 65.479 125.604 65.5957 125.254 65.6833C124.903 65.7708 124.582 65.8 124.305 65.8C123.751 65.8 123.269 65.7125 122.875 65.5374C122.481 65.3623 122.16 65.1143 121.912 64.7933C121.664 64.4723 121.489 64.1076 121.373 63.6553C121.256 63.2176 121.198 62.7361 121.198 62.2255C121.198 61.6273 121.285 61.1021 121.446 60.6498C121.606 60.1975 121.825 59.8328 122.102 59.541C122.379 59.2492 122.7 59.0303 123.08 58.899C123.459 58.7531 123.868 58.6802 124.291 58.6802C124.772 58.6802 125.181 58.7677 125.516 58.9136C125.866 59.0741 126.144 59.2929 126.362 59.5847C126.581 59.8765 126.742 60.2121 126.844 60.6206C126.946 61.0145 126.99 61.4668 126.975 61.9483L126.669 62.386L126.654 62.4152Z" fill="white"/>
<path d="M132.563 64.7933C132.388 65.0559 132.169 65.2748 131.906 65.4207C131.644 65.5666 131.352 65.6833 131.031 65.7416C130.71 65.8 130.404 65.8292 130.126 65.8292C129.747 65.8292 129.411 65.8 129.105 65.7416C128.799 65.6833 128.536 65.6103 128.317 65.5374L128.419 63.9033H128.988L129.09 65.0559C129.236 65.0997 129.397 65.1289 129.557 65.158C129.718 65.1872 129.878 65.2018 130.068 65.2018C130.316 65.2018 130.549 65.1872 130.768 65.1435C130.987 65.0997 131.191 65.0267 131.366 64.91C131.542 64.7933 131.687 64.662 131.79 64.4869C131.892 64.3118 131.95 64.093 131.95 63.845C131.95 63.7136 131.921 63.5823 131.863 63.4656C131.804 63.3489 131.702 63.2322 131.556 63.1009C131.425 62.9987 131.264 62.8966 131.075 62.8091C130.885 62.7215 130.695 62.634 130.491 62.5465C130.287 62.4589 130.083 62.3714 129.878 62.2838C129.674 62.1963 129.499 62.0942 129.338 61.9775C128.842 61.6273 128.594 61.1604 128.594 60.5768C128.594 60.2996 128.653 60.0516 128.769 59.8182C128.886 59.5847 129.032 59.3951 129.222 59.2346C129.411 59.0741 129.63 58.9428 129.893 58.8698C130.156 58.7823 130.418 58.7385 130.71 58.7385C131.016 58.7385 131.337 58.7677 131.658 58.8407C131.979 58.899 132.256 58.9866 132.49 59.0887L132.388 60.6644H131.833L131.717 59.4972C131.41 59.4242 131.118 59.3951 130.812 59.3951C130.389 59.3951 130.053 59.5118 129.805 59.7306C129.557 59.9495 129.441 60.2413 129.441 60.5768C129.441 60.7519 129.499 60.927 129.616 61.1021C129.732 61.2772 129.937 61.4376 130.228 61.5835C130.418 61.6857 130.593 61.7586 130.754 61.8316C130.914 61.9045 131.06 61.9629 131.206 62.0358C131.352 62.0942 131.483 62.1525 131.629 62.2255C131.76 62.2984 131.906 62.3714 132.052 62.4735C132.577 62.8237 132.84 63.276 132.84 63.845C132.84 64.2535 132.753 64.6036 132.577 64.8662" fill="white"/>
<path d="M138.034 65.6686C137.888 65.6978 137.742 65.727 137.597 65.7415C137.451 65.7707 137.305 65.7853 137.173 65.7999C137.042 65.8145 136.925 65.8145 136.838 65.8145C136.561 65.8145 136.313 65.7853 136.065 65.727C135.817 65.6686 135.612 65.5519 135.437 65.3768C135.262 65.2017 135.116 64.9537 135 64.6327C134.897 64.3117 134.839 63.8886 134.839 63.3488V59.5555H133.657V59.1324L134.839 59.0156V57.0752L135.51 57.046L135.642 58.9719H138.136V59.5701H135.685V63.305C135.685 63.6844 135.714 63.9908 135.773 64.2242C135.831 64.4576 135.919 64.6473 136.021 64.7932C136.123 64.9391 136.254 65.0266 136.415 65.085C136.575 65.1434 136.75 65.1725 136.969 65.1725C137.144 65.1725 137.349 65.1579 137.611 65.1288C137.874 65.0996 138.107 65.0558 138.311 64.9975L138.414 65.5665C138.297 65.6102 138.166 65.6394 138.02 65.6832" fill="white"/>
<path d="M149.152 65.625V61.7733C149.152 60.9854 149.02 60.4164 148.743 60.0225C148.466 59.6432 147.999 59.4535 147.343 59.4535C147.007 59.4535 146.657 59.4973 146.307 59.5848C145.942 59.6723 145.577 59.8328 145.212 60.0663C145.315 60.2997 145.373 60.5331 145.417 60.7812C145.46 61.0292 145.475 61.2772 145.475 61.5252V65.0122H146.409V65.5958H144.643V61.7441C144.643 60.9708 144.512 60.3872 144.235 60.0079C143.972 59.6286 143.505 59.4243 142.863 59.4243C142.542 59.4243 142.207 59.4389 141.871 59.4827C141.536 59.5264 141.215 59.5702 140.938 59.6286V64.9976H141.871V65.5812H139.143V64.9976H140.091V59.8182H139.143V59.2347C139.377 59.1763 139.654 59.1179 139.931 59.0596C140.208 59.0012 140.529 58.9283 140.85 58.8845C141.186 58.8261 141.521 58.7824 141.871 58.7386C142.222 58.7094 142.586 58.6802 142.951 58.6802C143.389 58.6802 143.753 58.7386 144.06 58.8699C144.366 59.0012 144.614 59.1763 144.804 59.3806C145.256 59.1179 145.708 58.9429 146.146 58.8261C146.584 58.724 147.022 58.6656 147.445 58.6656C148.32 58.6656 148.962 58.9137 149.371 59.3806C149.794 59.862 149.998 60.5623 149.998 61.4961V64.9684H150.932V65.552H149.166L149.152 65.625Z" fill="white"/>
<path d="M156.957 60.8395C156.884 60.5477 156.782 60.2851 156.621 60.0808C156.461 59.8619 156.271 59.7015 156.023 59.5847C155.79 59.468 155.483 59.4097 155.148 59.4097C154.842 59.4097 154.564 59.468 154.302 59.5556C154.039 59.6577 153.82 59.8036 153.616 60.0078C153.426 60.2121 153.266 60.4601 153.149 60.7665C153.032 61.0583 152.959 61.4231 152.93 61.817H157.045C157.045 61.4668 157.03 61.1459 156.957 60.8395ZM157.511 62.4152C157.263 62.4152 156.986 62.4152 156.709 62.4152H152.916C152.916 62.8091 152.959 63.1592 153.047 63.4948C153.135 63.8304 153.266 64.1076 153.455 64.3556C153.631 64.6036 153.879 64.7933 154.17 64.9246C154.462 65.0705 154.812 65.1289 155.235 65.1289C155.498 65.1289 155.775 65.0997 156.082 65.0267C156.388 64.9538 156.68 64.8517 156.957 64.7058L157.118 65.3039C156.811 65.479 156.476 65.5957 156.125 65.6833C155.775 65.7708 155.454 65.8 155.177 65.8C154.623 65.8 154.141 65.7125 153.747 65.5374C153.353 65.3623 153.032 65.1143 152.784 64.7933C152.536 64.4723 152.361 64.1076 152.245 63.6553C152.128 63.2176 152.069 62.7361 152.069 62.2255C152.069 61.6273 152.157 61.1021 152.317 60.6498C152.478 60.1975 152.697 59.8328 152.974 59.541C153.251 59.2492 153.587 59.0303 153.952 58.899C154.331 58.7531 154.739 58.6802 155.162 58.6802C155.644 58.6802 156.052 58.7677 156.388 58.9136C156.738 59.0741 157.015 59.2929 157.234 59.5847C157.453 59.8765 157.614 60.2121 157.716 60.6206C157.818 61.0145 157.862 61.4668 157.847 61.9483L157.541 62.386L157.511 62.4152Z" fill="white"/>
<path d="M163.552 65.6249V65.0413H164.5V61.7877C164.5 61.0145 164.369 60.4309 164.106 60.0515C163.843 59.6722 163.376 59.468 162.705 59.468C162.37 59.468 162.034 59.4825 161.684 59.5263C161.334 59.5701 161.013 59.6139 160.721 59.6722V65.0413H161.655V65.6249H158.927V65.0413H159.875V59.8619H158.97V59.2783C159.218 59.2199 159.481 59.1616 159.758 59.1032C160.05 59.0449 160.356 58.9719 160.677 58.9281C160.998 58.8698 161.348 58.826 161.699 58.7822C162.049 58.7531 162.414 58.7239 162.778 58.7239C163.654 58.7239 164.31 58.9719 164.719 59.4534C165.127 59.9348 165.346 60.6497 165.346 61.5689V65.0413H166.28V65.6249H163.566H163.552Z" fill="white"/>
<path d="M171.182 65.6686C171.036 65.6978 170.89 65.727 170.745 65.7415C170.599 65.7707 170.453 65.7853 170.321 65.7999C170.19 65.8145 170.073 65.8145 169.986 65.8145C169.723 65.8145 169.461 65.7853 169.227 65.727C168.979 65.6686 168.775 65.5519 168.6 65.3768C168.425 65.2017 168.279 64.9537 168.162 64.6327C168.06 64.3117 168.002 63.8886 168.002 63.3488V59.5555H166.82V59.1324L168.002 59.0156V57.0752L168.673 57.046L168.804 58.9719H171.299V59.5701H168.848V63.305C168.848 63.6844 168.877 63.9908 168.935 64.2242C168.994 64.4576 169.081 64.6473 169.183 64.7932C169.286 64.9391 169.417 65.0266 169.577 65.085C169.738 65.1434 169.913 65.1725 170.132 65.1725C170.307 65.1725 170.511 65.1579 170.774 65.1288C171.036 65.0996 171.27 65.0558 171.474 64.9975L171.576 65.5665C171.459 65.6102 171.328 65.6394 171.182 65.6832" fill="white"/>
<path d="M183.321 58.1111H182.679L182.475 56.7835H180.315V64.9683H181.38V65.6249H178.375V64.9683H179.44V56.7835H177.397L177.105 58.1111H176.464L176.507 55.9956H183.394L183.321 58.1111Z" fill="white"/>
<path d="M189.026 60.0808C188.646 59.6285 188.106 59.4097 187.406 59.4097C186.706 59.4097 186.166 59.6285 185.787 60.0808C185.407 60.5331 185.218 61.2626 185.218 62.2693C185.218 63.276 185.407 64.0054 185.787 64.4577C186.166 64.91 186.706 65.1289 187.406 65.1289C188.106 65.1289 188.646 64.91 189.026 64.4577C189.405 64.0054 189.595 63.276 189.595 62.2693C189.595 61.2626 189.405 60.5331 189.026 60.0808ZM190.237 63.845C190.091 64.2826 189.886 64.662 189.609 64.9538C189.347 65.2456 189.026 65.4644 188.646 65.6103C188.267 65.7562 187.858 65.8292 187.391 65.8292C186.925 65.8292 186.516 65.7562 186.137 65.6103C185.772 65.4644 185.451 65.2456 185.174 64.9538C184.911 64.662 184.692 64.2972 184.561 63.845C184.415 63.4073 184.342 62.8674 184.342 62.2693C184.342 61.6711 184.415 61.1313 184.561 60.6936C184.707 60.2413 184.911 59.8765 185.174 59.5847C185.436 59.2929 185.757 59.0741 186.137 58.9282C186.516 58.7823 186.925 58.7094 187.391 58.7094C187.858 58.7094 188.267 58.7823 188.646 58.9282C189.026 59.0741 189.347 59.2929 189.609 59.5847C189.872 59.8765 190.076 60.2413 190.237 60.6936C190.382 61.1313 190.455 61.6711 190.455 62.2693C190.455 62.8674 190.382 63.4073 190.237 63.845Z" fill="white"/>
<path d="M201.981 61.3063C201.485 60.9853 200.785 60.8395 199.909 60.8395H198.1V64.9246C198.363 64.9246 198.655 64.9246 198.976 64.9392C199.296 64.9392 199.574 64.9392 199.793 64.9392C200.245 64.9392 200.653 64.91 201.018 64.8371C201.383 64.7641 201.689 64.6474 201.952 64.4869C202.214 64.3264 202.404 64.1076 202.535 63.8449C202.667 63.5823 202.74 63.2614 202.74 62.8674C202.74 62.1525 202.492 61.6273 201.996 61.3209M202.098 57.4984C201.966 57.2504 201.791 57.0607 201.572 56.9148C201.354 56.7689 201.091 56.6668 200.799 56.6084C200.493 56.55 200.172 56.5209 199.836 56.5209C199.574 56.5209 199.282 56.5209 198.99 56.5209C198.698 56.5209 198.406 56.5646 198.115 56.6084V60.11H199.88C200.084 60.11 200.303 60.11 200.522 60.1245C200.741 60.1391 200.945 60.1683 201.12 60.1975C201.514 59.9786 201.806 59.716 202.01 59.4097C202.214 59.1033 202.302 58.7531 202.302 58.3884C202.302 58.0236 202.244 57.7318 202.112 57.4838M203.382 64.1513C203.207 64.5161 202.944 64.7933 202.608 65.0121C202.273 65.231 201.879 65.3915 201.412 65.4936C200.945 65.5957 200.42 65.6541 199.851 65.6541C198.757 65.6541 197.517 65.6395 196.101 65.6103V64.9684H197.21V56.6814H196.101V56.0394C196.349 56.0102 196.627 55.981 196.933 55.9519C197.239 55.9227 197.56 55.8935 197.881 55.8643C198.217 55.8352 198.538 55.8351 198.873 55.806C199.209 55.806 199.545 55.7914 199.865 55.7914C200.303 55.7914 200.726 55.8351 201.12 55.9081C201.514 55.981 201.864 56.1269 202.171 56.3166C202.477 56.5063 202.71 56.7689 202.886 57.0899C203.061 57.4108 203.163 57.8194 203.163 58.3154C203.163 58.7677 203.046 59.1616 202.842 59.5118C202.638 59.8619 202.331 60.1829 201.937 60.4309C202.462 60.606 202.871 60.8978 203.192 61.2771C203.513 61.6565 203.673 62.1817 203.673 62.8528C203.673 63.3635 203.571 63.8012 203.396 64.1659" fill="white"/>
<path d="M209.976 60.8395C209.904 60.5477 209.801 60.2851 209.641 60.0808C209.48 59.8619 209.291 59.7015 209.043 59.5847C208.795 59.468 208.503 59.4097 208.167 59.4097C207.861 59.4097 207.584 59.468 207.321 59.5556C207.059 59.6577 206.84 59.8036 206.635 60.0078C206.446 60.2121 206.285 60.4601 206.169 60.7665C206.052 61.0583 205.979 61.4231 205.95 61.817H210.064C210.064 61.4668 210.049 61.1459 209.976 60.8395ZM210.531 62.4152C210.283 62.4152 210.006 62.4152 209.728 62.4152H205.935C205.935 62.8091 205.979 63.1592 206.066 63.4948C206.154 63.8304 206.285 64.1076 206.475 64.3556C206.665 64.6036 206.898 64.7933 207.19 64.9246C207.482 65.0705 207.832 65.1289 208.24 65.1289C208.503 65.1289 208.78 65.0997 209.086 65.0267C209.393 64.9538 209.685 64.8517 209.962 64.7058L210.122 65.3039C209.816 65.479 209.48 65.5957 209.13 65.6833C208.78 65.7708 208.459 65.8 208.182 65.8C207.628 65.8 207.146 65.7125 206.752 65.5374C206.358 65.3623 206.037 65.1143 205.789 64.7933C205.541 64.4723 205.366 64.1076 205.249 63.6553C205.133 63.2176 205.074 62.7361 205.074 62.2255C205.074 61.6273 205.162 61.1021 205.322 60.6498C205.483 60.1975 205.702 59.8328 205.979 59.541C206.256 59.2492 206.592 59.0303 206.956 58.899C207.336 58.7531 207.744 58.6802 208.167 58.6802C208.649 58.6802 209.057 58.7677 209.407 58.9136C209.758 59.0741 210.035 59.2929 210.254 59.5847C210.473 59.8765 210.633 60.2121 210.735 60.6206C210.837 61.0145 210.881 61.4668 210.866 61.9483L210.56 62.386L210.531 62.4152Z" fill="white"/>
<path d="M222.99 58.1111H222.348L222.144 56.7835H219.985V64.9683H221.05V65.6249H218.044V64.9683H219.109V56.7835H217.067L216.775 58.1111H216.133L216.177 55.9956H223.063L222.99 58.1111Z" fill="white"/>
<path d="M228.097 60.3288H227.528L227.455 59.4534C227.09 59.4534 226.74 59.5264 226.419 59.6431C226.083 59.7598 225.806 60.0078 225.573 60.358V65.0267H226.725V65.6103H223.793V65.0267H224.741V59.541H223.793V58.9574H225.456L225.514 59.5993C225.821 59.2346 226.142 58.9866 226.521 58.8844C226.9 58.7677 227.309 58.7094 227.747 58.7094H227.995C228.082 58.7094 228.17 58.7093 228.243 58.7385L228.14 60.3288H228.097Z" fill="white"/>
<path d="M234.006 65.7417C233.466 65.8 232.955 65.8292 232.474 65.8292C231.598 65.8292 230.956 65.5958 230.563 65.0997C230.169 64.6182 229.964 63.9033 229.964 62.955V59.541H228.987V58.9428H230.811V62.7653C230.811 63.5386 230.942 64.1076 231.19 64.5015C231.453 64.8809 231.905 65.0851 232.576 65.0851C232.911 65.0851 233.262 65.0851 233.626 65.0414C233.991 65.0122 234.312 64.983 234.589 64.9246V59.5264H233.612V58.9282H235.436V65.5082C235.027 65.5812 234.56 65.6541 234.02 65.7125" fill="white"/>
<path d="M241.578 64.7933C241.403 65.0559 241.184 65.2748 240.921 65.4207C240.659 65.5666 240.367 65.6833 240.046 65.7416C239.725 65.8 239.418 65.8292 239.141 65.8292C238.762 65.8292 238.426 65.8 238.12 65.7416C237.814 65.6833 237.551 65.6103 237.318 65.5374L237.434 63.9033H238.003L238.105 65.0559C238.266 65.0997 238.412 65.1289 238.572 65.158C238.733 65.1872 238.908 65.2018 239.097 65.2018C239.345 65.2018 239.579 65.1872 239.798 65.1435C240.017 65.0997 240.221 65.0267 240.396 64.91C240.571 64.7933 240.717 64.662 240.819 64.4869C240.921 64.3118 240.98 64.093 240.98 63.845C240.98 63.7136 240.95 63.5823 240.892 63.4656C240.834 63.3489 240.732 63.2322 240.586 63.1009C240.454 62.9987 240.294 62.8966 240.104 62.8091C239.914 62.7215 239.725 62.634 239.521 62.5465C239.316 62.4589 239.112 62.3714 238.922 62.2838C238.718 62.1963 238.543 62.0942 238.368 61.9775C237.872 61.6273 237.624 61.1604 237.624 60.5768C237.624 60.2996 237.682 60.0516 237.784 59.8182C237.901 59.5847 238.047 59.3951 238.237 59.2346C238.426 59.0741 238.645 58.9428 238.908 58.8698C239.17 58.7823 239.433 58.7385 239.725 58.7385C240.046 58.7385 240.352 58.7677 240.673 58.8407C240.994 58.9136 241.271 58.9866 241.505 59.0887L241.403 60.6644H240.848L240.732 59.4972C240.425 59.4242 240.119 59.3951 239.827 59.3951C239.404 59.3951 239.068 59.5118 238.82 59.7306C238.572 59.9495 238.456 60.2413 238.456 60.5768C238.456 60.7519 238.514 60.927 238.631 61.1021C238.747 61.2772 238.952 61.4376 239.243 61.5835C239.433 61.6857 239.608 61.7586 239.769 61.8316C239.929 61.9045 240.075 61.9629 240.221 62.0358C240.367 62.0942 240.498 62.1525 240.644 62.2255C240.775 62.2984 240.921 62.3714 241.082 62.4735C241.607 62.8237 241.87 63.276 241.87 63.845C241.87 64.2535 241.782 64.6036 241.607 64.8662" fill="white"/>
<path d="M247.049 65.6686C246.903 65.6978 246.757 65.727 246.611 65.7415C246.466 65.7707 246.32 65.7853 246.188 65.7999C246.057 65.8145 245.94 65.8145 245.853 65.8145C245.59 65.8145 245.328 65.7853 245.094 65.727C244.846 65.6686 244.642 65.5519 244.467 65.3768C244.292 65.2017 244.146 64.9537 244.044 64.6327C243.927 64.3117 243.883 63.8886 243.883 63.3488V59.5555H242.701V59.1324L243.883 59.0156V57.0752L244.554 57.046L244.686 58.9719H247.18V59.5701H244.729V63.305C244.729 63.6844 244.759 63.9908 244.817 64.2242C244.875 64.4576 244.963 64.6473 245.065 64.7932C245.167 64.9391 245.298 65.0266 245.459 65.085C245.619 65.1434 245.794 65.1725 245.999 65.1725C246.174 65.1725 246.378 65.1579 246.641 65.1288C246.903 65.0996 247.137 65.0558 247.341 64.9975L247.443 65.5665C247.326 65.6102 247.195 65.6394 247.049 65.6832" fill="white"/>
<path d="M253.323 60.8395C253.25 60.5477 253.148 60.2851 252.987 60.0808C252.841 59.8619 252.637 59.7015 252.389 59.5847C252.156 59.468 251.849 59.4097 251.514 59.4097C251.207 59.4097 250.93 59.468 250.667 59.5556C250.405 59.6577 250.186 59.8036 249.982 60.0078C249.792 60.2121 249.631 60.4601 249.515 60.7665C249.398 61.0583 249.325 61.4231 249.296 61.817H253.41C253.41 61.4668 253.396 61.1459 253.323 60.8395ZM253.877 62.4152C253.629 62.4152 253.352 62.4152 253.075 62.4152H249.281C249.281 62.8091 249.325 63.1592 249.413 63.4948C249.5 63.8304 249.631 64.1076 249.821 64.3556C249.996 64.6036 250.244 64.7933 250.536 64.9246C250.828 65.0705 251.178 65.1289 251.601 65.1289C251.864 65.1289 252.141 65.0997 252.447 65.0267C252.754 64.9538 253.045 64.8517 253.323 64.7058L253.483 65.3039C253.177 65.479 252.841 65.5957 252.491 65.6833C252.141 65.7708 251.82 65.8 251.528 65.8C250.974 65.8 250.492 65.7125 250.098 65.5374C249.704 65.3623 249.383 65.1143 249.135 64.7933C248.887 64.4723 248.712 64.1076 248.596 63.6553C248.479 63.2176 248.421 62.7361 248.421 62.2255C248.421 61.6273 248.508 61.1021 248.669 60.6498C248.829 60.1975 249.048 59.8328 249.325 59.541C249.602 59.2492 249.938 59.0303 250.303 58.899C250.682 58.7531 251.09 58.6802 251.514 58.6802C251.995 58.6802 252.404 58.7677 252.739 58.9136C253.089 59.0741 253.366 59.2929 253.585 59.5847C253.804 59.8765 253.965 60.2121 254.067 60.6206C254.169 61.0145 254.213 61.4668 254.198 61.9483L253.892 62.386L253.877 62.4152Z" fill="white"/>
<path d="M260.384 59.7306C260.18 59.6285 259.946 59.5555 259.684 59.4972C259.436 59.4388 259.173 59.4097 258.91 59.4097C258.546 59.4097 258.21 59.468 257.904 59.5847C257.597 59.7014 257.335 59.8765 257.101 60.0954C256.882 60.3288 256.707 60.6206 256.591 60.9853C256.474 61.3355 256.401 61.7732 256.401 62.2692C256.401 62.7653 256.459 63.1884 256.591 63.5386C256.707 63.8887 256.882 64.1805 257.087 64.414C257.291 64.6328 257.539 64.8079 257.802 64.91C258.079 65.0121 258.371 65.0705 258.677 65.0705C258.998 65.0705 259.304 65.0121 259.611 64.8808C259.903 64.7495 260.165 64.589 260.399 64.3848V59.7452L260.384 59.7306ZM260.501 65.6249L260.472 65.1726C260.238 65.3623 259.961 65.5082 259.625 65.6395C259.29 65.7562 258.94 65.8292 258.575 65.8292C258.137 65.8292 257.743 65.7562 257.378 65.6103C257.014 65.4644 256.693 65.2456 256.416 64.9538C256.138 64.662 255.934 64.2972 255.774 63.8449C255.613 63.3927 255.54 62.8674 255.54 62.2547C255.54 61.6419 255.628 61.1312 255.803 60.679C255.978 60.2267 256.211 59.8619 256.503 59.5701C256.795 59.2783 257.145 59.0595 257.554 58.9136C257.962 58.7677 258.4 58.6947 258.896 58.6947C259.158 58.6947 259.421 58.7239 259.669 58.7677C259.932 58.8115 260.165 58.8844 260.384 58.9865V56.4187H259.421V55.8206H261.216V64.9975H262.135V65.5811H260.501V65.6249Z" fill="white"/>
</svg>
