<svg width="462" height="128" viewBox="0 0 462 128" fill="none" xmlns="http://www.w3.org/2000/svg">
<path d="M164.328 52.6385C163.552 52.1145 162.446 51.8622 161.009 51.8622H158.214V58.5776C158.603 58.597 159.049 58.6164 159.534 58.6164C160.019 58.6164 160.427 58.6164 160.757 58.6164C161.475 58.6164 162.135 58.5582 162.717 58.4418C163.3 58.3253 163.804 58.1312 164.212 57.8595C164.619 57.5878 164.93 57.2384 165.163 56.792C165.376 56.3456 165.493 55.8216 165.493 55.1811C165.493 53.9971 165.105 53.1431 164.328 52.6385ZM164.464 45.9813C164.27 45.5931 163.979 45.2631 163.629 45.0302C163.261 44.7973 162.853 44.6226 162.368 44.5062C161.883 44.4092 161.378 44.3509 160.815 44.3509C160.408 44.3509 159.981 44.3509 159.534 44.3509C159.088 44.3509 158.661 44.3897 158.214 44.4868V50.2318H161.087C161.378 50.2318 161.708 50.2318 162.019 50.2706C162.329 50.29 162.64 50.3289 162.911 50.3871C163.513 50.0183 163.979 49.5719 164.289 49.0673C164.619 48.5626 164.775 47.9998 164.775 47.4175C164.775 46.8353 164.678 46.35 164.483 45.9813M167.278 57.5101C166.948 58.1506 166.483 58.6747 165.881 59.0822C165.279 59.4898 164.542 59.781 163.707 59.9751C162.853 60.1691 161.922 60.2468 160.912 60.2468C159.806 60.2468 158.719 60.2468 157.652 60.2468C156.565 60.2468 155.439 60.208 154.236 60.1886V58.7911H156.06V44.5062H154.236V43.1282C155.148 43.0311 156.196 42.9341 157.38 42.8564C158.564 42.7788 159.748 42.7206 160.951 42.7206C161.727 42.7206 162.484 42.7982 163.202 42.9341C163.921 43.0699 164.561 43.3223 165.105 43.6522C165.648 44.0016 166.094 44.448 166.405 45.0302C166.715 45.5931 166.871 46.3112 166.871 47.1846C166.871 47.9804 166.696 48.6791 166.308 49.3002C165.939 49.9213 165.435 50.4259 164.833 50.8723C165.706 51.2023 166.424 51.7069 166.968 52.3862C167.511 53.0655 167.783 53.9777 167.783 55.1423C167.783 56.0739 167.608 56.8502 167.298 57.4907" fill="#1A1A1A"/>
<path d="M181.292 60.0914C180.748 60.169 180.185 60.2467 179.622 60.3243C179.04 60.3825 178.458 60.4408 177.876 60.4796C177.293 60.5184 176.73 60.5378 176.206 60.5378C174.11 60.5378 172.577 60.0138 171.568 58.9851C170.558 57.9564 170.054 56.4231 170.054 54.424V44.4479H168.482V43.0698H172.189V54.1717C172.189 55.6856 172.499 56.8307 173.14 57.5876C173.78 58.3446 174.848 58.7328 176.362 58.7328C177.099 58.7328 177.837 58.694 178.594 58.6357C179.331 58.5775 180.03 58.4805 180.632 58.3446V44.4284H179.021V43.0504H182.747V59.8003C182.32 59.8973 181.835 59.9943 181.292 60.072" fill="#1A1A1A"/>
<path d="M196.236 60.1884H184.63V58.791H186.454V44.4284H184.63V43.0698H190.666V44.4284H188.608V58.6357H194.722L195.188 56.5978H196.488L196.236 60.1884Z" fill="#1A1A1A"/>
<path d="M208.638 60.1884H197.032V58.791H198.856V44.4284H197.032V43.0698H203.049V44.4284H200.991V58.6357H207.125L207.59 56.5978H208.871L208.638 60.1884Z" fill="#1A1A1A"/>
<path d="M209.415 60.1884V58.791H211.239V44.4284H209.415V43.0698H215.179V44.4284H213.374V58.791H215.179V60.1884H209.415Z" fill="#1A1A1A"/>
<path d="M227.64 48.2909C227.407 47.3787 227.097 46.6412 226.67 46.0783C226.262 45.5155 225.757 45.1079 225.194 44.8361C224.632 44.5838 223.991 44.448 223.312 44.448C222.632 44.448 221.973 44.5838 221.39 44.8361C220.808 45.0885 220.303 45.4961 219.896 46.0783C219.469 46.6412 219.158 47.3787 218.945 48.2909C218.712 49.2031 218.615 50.3094 218.615 51.6098C218.615 52.9102 218.731 54.0554 218.945 54.9676C219.158 55.8798 219.488 56.6173 219.896 57.1802C220.303 57.743 220.808 58.1506 221.39 58.4029C221.973 58.6553 222.613 58.7911 223.312 58.7911C224.01 58.7911 224.632 58.6553 225.194 58.4029C225.757 58.1506 226.262 57.743 226.67 57.1802C227.077 56.6173 227.407 55.8798 227.64 54.9676C227.873 54.0554 227.989 52.949 227.989 51.6098C227.989 50.2706 227.873 49.2031 227.64 48.2909ZM228.377 58.3641C227.155 59.8198 225.466 60.5379 223.312 60.5379C221.157 60.5379 219.43 59.8198 218.207 58.3641C216.984 56.9085 216.383 54.657 216.383 51.6292C216.383 48.6015 217.004 46.3306 218.207 44.8944C219.43 43.4581 221.138 42.7206 223.312 42.7206C225.486 42.7206 227.155 43.4581 228.377 44.8944C229.6 46.3306 230.221 48.5821 230.221 51.6292C230.221 54.6764 229.6 56.9279 228.377 58.3641Z" fill="#1A1A1A"/>
<path d="M246.098 44.4284V60.2078H244.137L234.976 46.544L235.015 58.791H236.84V60.1884H231.386V58.791H233.21V44.4284H231.386V43.0698H235.151L244.312 56.7919L244.273 44.4284H242.468V43.0698H247.922V44.4284H246.098Z" fill="#1A1A1A"/>
<path d="M267.214 47.0292H265.914L265.584 44.7584H261.974V58.791H263.798V60.1884H258.015V58.791H259.839V44.7584H256.384L255.938 47.0292H254.637L254.715 43.0698H267.37L267.214 47.0292Z" fill="#1A1A1A"/>
<path d="M278.219 46.3692C277.967 45.9034 277.637 45.5152 277.229 45.2047C276.822 44.8941 276.356 44.6806 275.851 44.5448C275.327 44.4089 274.803 44.3313 274.24 44.3313C273.833 44.3313 273.406 44.3313 272.901 44.3507C272.416 44.3507 271.969 44.3895 271.581 44.4283V52.0366H273.115C273.91 52.0366 274.648 51.9784 275.308 51.8231C275.968 51.6872 276.55 51.4737 277.035 51.1632C277.52 50.8526 277.909 50.4645 278.18 49.9598C278.452 49.4552 278.588 48.8341 278.588 48.0772C278.588 47.3979 278.471 46.8156 278.219 46.3498M278.782 60.1883L274.881 53.5893C274.318 53.6475 273.677 53.6669 272.959 53.6669H271.581V58.8103H273.619V60.2077H267.622V58.8103H269.446V44.4671H267.622V43.1085C268.689 42.9921 269.796 42.895 270.941 42.8368C272.086 42.7786 273.192 42.7592 274.279 42.7592C275.133 42.7592 275.968 42.8562 276.744 43.0503C277.54 43.2444 278.219 43.5549 278.821 43.9819C279.422 44.4089 279.908 44.9718 280.257 45.6511C280.606 46.3304 280.8 47.165 280.8 48.1354C280.8 48.8341 280.703 49.4552 280.49 49.9987C280.296 50.5421 280.024 51.0079 279.675 51.4349C279.325 51.8425 278.918 52.1919 278.433 52.4636C277.947 52.7353 277.443 52.9682 276.899 53.1235L280.315 58.8491H281.538V60.2465H278.763L278.782 60.1883Z" fill="#1A1A1A"/>
<path d="M289.554 44.7972H288.234L286.177 53.1818H291.65L289.554 44.7972ZM291.32 60.1884V58.791H293.048L292.019 54.7734H285.828L284.818 58.791H286.585V60.1884H281.344V58.791H282.936L286.856 43.0698H291.204L295.202 58.791H296.735V60.1884H291.301H291.32Z" fill="#1A1A1A"/>
<path d="M308.982 48.3103C308.691 47.3593 308.283 46.6024 307.798 46.0395C307.294 45.4766 306.711 45.0691 306.051 44.8361C305.391 44.6032 304.693 44.4868 303.955 44.4868C303.412 44.4868 302.868 44.4868 302.344 44.4868C301.82 44.4868 301.277 44.5256 300.753 44.5644V58.5388C301.141 58.5776 301.529 58.597 301.917 58.6164C302.305 58.6164 302.791 58.6358 303.392 58.6358C303.994 58.6358 304.712 58.5388 305.411 58.3447C306.129 58.1506 306.769 57.8207 307.352 57.316C307.953 56.8114 308.419 56.1321 308.807 55.2393C309.196 54.3659 309.39 53.2402 309.39 51.8622C309.39 50.4841 309.234 49.242 308.943 48.2909M311.02 55.7827C310.574 56.8502 309.991 57.7236 309.234 58.4029C308.477 59.0822 307.604 59.5675 306.614 59.878C305.624 60.1886 304.596 60.3244 303.509 60.3244C302.17 60.3244 300.966 60.3244 299.899 60.2856C298.831 60.2662 297.803 60.2274 296.774 60.1886V58.7911H298.598V44.448H296.774V43.0699C297.9 42.9923 299.064 42.9341 300.268 42.8953C301.451 42.8564 302.732 42.837 304.072 42.837C306.478 42.837 308.342 43.5746 309.661 45.0691C310.981 46.5635 311.641 48.8344 311.641 51.8816C311.641 53.4149 311.428 54.7153 310.981 55.7827" fill="#1A1A1A"/>
<path d="M312.825 60.1884V58.791H314.65V44.4284H312.825V43.0698H318.59V44.4284H316.765V58.791H318.59V60.1884H312.825Z" fill="#1A1A1A"/>
<path d="M333.981 44.4284V60.2078H332.021L322.86 46.544L322.899 58.791H324.723V60.1884H319.269V58.791H321.074V44.4284H319.269V43.0698H323.015L332.176 56.7919L332.157 44.4284H330.352V43.0698H335.786V44.4284H333.981Z" fill="#1A1A1A"/>
<path d="M346.771 60.3243C345.878 60.4796 345.005 60.5378 344.131 60.5378C343.083 60.5378 342.113 60.3825 341.22 60.0526C340.327 59.7226 339.57 59.1986 338.949 58.4805C338.309 57.7623 337.824 56.8501 337.474 55.705C337.125 54.5793 336.95 53.2012 336.95 51.6097C336.95 50.0182 337.144 48.6984 337.513 47.5727C337.882 46.447 338.406 45.5347 339.046 44.8166C339.687 44.0985 340.444 43.5744 341.317 43.2251C342.191 42.8757 343.103 42.701 344.093 42.701C345.141 42.701 346.034 42.7787 346.752 42.9534C347.47 43.128 348.149 43.4192 348.809 43.8074L348.498 47.0098H347.256L347.004 44.9331C346.558 44.7196 346.092 44.5643 345.607 44.5255C345.121 44.4673 344.636 44.4478 344.17 44.4478C342.656 44.4478 341.453 45.0689 340.56 46.2917C339.667 47.5339 339.221 49.3001 339.221 51.5903C339.221 53.8805 339.648 55.7632 340.521 56.9666C341.395 58.1699 342.637 58.791 344.248 58.791C344.83 58.791 345.374 58.7522 345.878 58.6939C346.402 58.6357 346.926 58.5387 347.45 58.4028V53.5506H344.073V51.9785H349.411V59.6838C348.576 59.9555 347.703 60.169 346.81 60.3049" fill="#1A1A1A"/>
<path d="M368.723 46.9904H367.481L367.229 44.9137C366.782 44.7002 366.316 44.5449 365.831 44.5061C365.346 44.4478 364.861 44.409 364.395 44.409C362.881 44.409 361.658 45.0301 360.746 46.2723C359.834 47.5144 359.387 49.2807 359.387 51.5709C359.387 53.8611 359.814 55.7438 360.688 56.9471C361.561 58.1505 362.803 58.7522 364.395 58.7522C365.035 58.7522 365.656 58.6939 366.258 58.5775C366.86 58.461 367.442 58.2864 368.005 58.0535L368.393 59.7032C367.733 59.9749 367.035 60.169 366.336 60.3049C365.637 60.4407 364.958 60.499 364.317 60.499C363.25 60.499 362.279 60.3437 361.406 60.0137C360.533 59.6838 359.776 59.1598 359.155 58.4416C358.533 57.7235 358.029 56.7919 357.699 55.6662C357.349 54.5404 357.175 53.1624 357.175 51.5709C357.175 49.9794 357.369 48.6596 357.738 47.5339C358.126 46.4081 358.63 45.4959 359.29 44.7778C359.931 44.0597 360.688 43.5356 361.561 43.1863C362.435 42.8369 363.366 42.6622 364.356 42.6622C365.404 42.6622 366.297 42.7593 367.015 42.934C367.733 43.1086 368.413 43.3998 369.072 43.7879L368.762 46.9904H368.723Z" fill="#1A1A1A"/>
<path d="M381.921 60.1302H370.178V58.7522H372.003V44.3896H370.178V43.031H381.416L381.319 46.6216H380.038L379.689 44.5837H374.138V50.5811H377.884L378.136 48.7954H379.417V53.8806H378.136L377.884 52.0949H374.138V58.5775H380.387L380.873 56.5396H382.153L381.921 60.1302Z" fill="#1A1A1A"/>
<path d="M397.72 44.3896V60.1496H395.759L386.598 46.4858L386.637 58.7522H388.462V60.1302H383.008V58.7522H384.813V44.3896H383.008V43.031H386.754L395.915 56.7337L395.895 44.3896H394.071V43.031H399.525V44.3896H397.72Z" fill="#1A1A1A"/>
<path d="M412.354 46.971H411.034L410.704 44.7002H407.094V58.7522H408.938V60.1302H403.135V58.7522H404.959V44.7002H401.524L401.058 46.971H399.777L399.835 43.031H412.49L412.354 46.971Z" fill="#1A1A1A"/>
<path d="M424.484 60.1302H412.742V58.7522H414.566V44.3896H412.742V43.031H423.979L423.882 46.6216H422.601L422.252 44.5837H416.721V50.5811H420.447L420.699 48.7954H421.98V53.8806H420.699L420.447 52.0949H416.721V58.5775H422.951L423.436 56.5396H424.717L424.484 60.1302Z" fill="#1A1A1A"/>
<path d="M436.169 46.3111C435.916 45.8453 435.586 45.4571 435.179 45.1466C434.771 44.836 434.305 44.6225 433.781 44.4867C433.257 44.3508 432.733 44.2732 432.17 44.2732C431.763 44.2732 431.336 44.2732 430.831 44.312C430.346 44.312 429.899 44.3508 429.511 44.3702V51.9785H431.045C431.84 51.9785 432.578 51.9008 433.238 51.765C433.917 51.6291 434.499 51.4156 434.985 51.1051C435.47 50.8139 435.839 50.4064 436.11 49.9017C436.382 49.3971 436.518 48.776 436.518 48.0191C436.518 47.3204 436.401 46.7575 436.149 46.2723M436.731 60.1302L432.83 53.5312C432.267 53.57 431.627 53.6088 430.928 53.6088H429.531V58.7522H431.569V60.1302H425.571V58.7522H427.396V44.3896H425.571V43.031C426.639 42.9145 427.745 42.8175 428.89 42.7593C430.035 42.701 431.142 42.6816 432.209 42.6816C433.083 42.6816 433.898 42.7787 434.693 42.9728C435.489 43.1669 436.169 43.4774 436.77 43.9044C437.372 44.3314 437.838 44.8942 438.206 45.5736C438.556 46.2529 438.75 47.0874 438.75 48.0579C438.75 48.7566 438.653 49.3777 438.439 49.9211C438.245 50.4646 437.974 50.9304 437.624 51.338C437.294 51.7456 436.867 52.0755 436.401 52.3667C435.916 52.6384 435.412 52.8519 434.868 53.0266L438.284 58.7522H439.507V60.1302H436.731Z" fill="#1A1A1A"/>
<path d="M82.4616 117.697C52.5526 117.697 28.3109 93.6494 28.3109 63.9538C28.3109 34.2583 52.5526 10.2107 82.4616 10.2107C112.371 10.2107 136.612 34.2777 136.612 63.9538C136.612 93.6299 112.371 117.697 82.4616 117.697ZM130.964 25.6019C128.888 22.0307 124.288 17.392 120.716 15.3346L105.325 6.42596C101.754 4.34921 95.4462 2.66064 91.3315 2.66064H73.553C69.4383 2.66064 63.1304 4.34921 59.5592 6.42596L44.168 15.3346C40.5967 17.4114 35.9774 22.0307 33.9201 25.6019L25.0308 41.032C22.9735 44.6226 21.2849 50.9305 21.2849 55.0646V72.8819C21.2849 77.016 22.9735 83.3433 25.0308 86.9145L33.9201 102.345C35.9774 105.916 40.5967 110.554 44.168 112.612L59.5592 121.52C63.1304 123.597 69.4383 125.286 73.553 125.286H91.3315C95.4656 125.286 101.754 123.597 105.325 121.52L120.716 112.612C124.288 110.535 128.907 105.916 130.964 102.345L139.854 86.9145C141.911 83.3238 143.6 77.016 143.6 72.8819V55.0646C143.6 50.9305 141.911 44.6032 139.854 41.032L130.964 25.6019Z" fill="#1A1A1A"/>
<path d="M120.173 68.903C120.173 71.6397 119.105 75.6379 117.727 78.0058L112.39 87.2444C111.012 89.6123 108.081 92.543 105.713 93.921L96.4554 99.2585C94.0875 100.636 90.0698 101.704 87.3332 101.704H76.6389C73.9023 101.704 69.8846 100.636 67.5167 99.2585L58.2587 93.921C55.8908 92.5624 52.9407 89.6317 51.5821 87.2444L46.2446 78.0058C44.8666 75.6379 43.7991 71.6202 43.7991 68.903V58.2087C43.7991 55.4721 44.8666 51.4739 46.2446 49.0866L51.5821 39.8479C52.9601 37.4801 55.8908 34.5493 58.2587 33.1713L67.5167 27.8339C69.8846 26.4752 73.9023 25.3884 76.6389 25.3884H87.3332C90.0698 25.3884 94.0875 26.4558 96.4554 27.8339L105.713 33.1713C108.101 34.5493 111.031 37.4801 112.39 39.8479L117.727 49.0866C119.105 51.4544 120.173 55.4721 120.173 58.2087V68.903ZM121.667 47.5533L115.748 37.1307C114.234 34.4523 110.973 31.1528 108.353 29.6195L98.1051 23.6027C95.4849 22.0694 91.0403 20.8467 87.9931 20.8467H76.1537C73.1259 20.8467 68.6813 22.05 66.0417 23.6027L55.7938 29.6195C53.1736 31.1528 49.9129 34.4523 48.399 37.1307L42.4793 47.5533C40.9654 50.2317 39.7815 54.7345 39.7815 57.8205V69.854C39.7815 72.94 40.9654 77.4429 42.4793 80.1213L48.399 90.5439C49.9129 93.2223 53.1736 96.5218 55.7938 98.0551L66.0417 104.072C68.6813 105.625 73.1065 106.828 76.1537 106.828H87.9931C91.0403 106.828 95.4655 105.625 98.1051 104.072L108.353 98.0551C110.993 96.5024 114.234 93.2223 115.748 90.5439L121.667 80.1213C123.181 77.4429 124.365 72.94 124.365 69.854V57.8205C124.365 54.7345 123.181 50.2317 121.667 47.5533Z" fill="#1A1A1A"/>
<path d="M64.3918 61.7993C66.0804 61.7993 66.9538 62.2263 67.9825 60.5571C68.7006 59.412 68.7394 57.6458 67.8272 56.5783C67.012 55.6467 61.3252 54.5598 61.3252 55.8214V61.0424C61.3252 62.4398 63.2273 61.7799 64.3918 61.7799M61.3252 72.7265C64.353 72.8235 69.4576 73.2505 69.4576 68.9029C69.4576 65.5646 66.3133 65.1959 63.7125 65.1959C61.1118 65.1959 61.3252 64.8853 61.3252 67.3502V72.7265ZM64.1784 76.2007C62.6839 76.2007 54.9203 76.8606 54.9203 75.4825C54.9203 75.0944 54.7262 72.9982 55.095 72.9982C55.425 72.9982 57.2688 73.1923 57.2688 72.8623V59.1209C57.2688 58.7133 57.4823 55.5885 57.0941 55.5885C56.7059 55.5885 54.9203 55.7826 54.9203 55.4138C54.9203 54.8121 54.5904 52.5607 55.2115 52.4831C59.3067 52.0367 64.1978 51.1633 68.196 52.4831C72.7959 53.9775 73.9216 59.8002 70.4474 63.1385C73.417 64.7883 74.368 68.3789 73.2811 71.5426C71.9807 75.3855 67.6914 76.2395 64.1784 76.2395" fill="#1A1A1A"/>
<path d="M78.0364 76.1232C78.0364 75.114 77.4542 72.9984 78.6381 72.9984C79.822 72.9984 80.3655 73.4254 80.3655 72.1832V61.7801C80.3655 60.0527 81.3553 55.8798 79.3368 55.8798C77.3183 55.8798 77.163 55.5499 76.736 57.6848C76.3867 59.4704 75.358 58.8494 73.6694 58.8494C73.7083 56.792 73.7471 54.7347 73.7859 52.6773C73.7859 51.9786 76.9883 52.3668 77.59 52.3668H91.4091C91.3315 54.4241 91.2539 56.4815 91.1956 58.5388C91.1762 59.2181 89.4294 58.8494 88.886 58.8494C87.8379 58.8494 88.1096 57.3743 87.9738 56.4621C87.8185 55.3946 84.4219 55.6081 84.4219 56.1709V72.9402C84.4219 73.1343 86.6151 72.7849 86.8092 72.979C87.1198 73.2895 86.8092 75.4439 86.8092 75.9292C86.8092 76.2979 85.2371 76.1038 84.9072 76.1038H78.0558L78.0364 76.1232Z" fill="#1A1A1A"/>
<path d="M101.288 76.5888C91.0014 76.5888 88.2648 61.7022 94.3204 54.8897C97.1152 51.7261 102.064 51.1826 105.888 52.5801C108.974 53.7058 107.965 55.142 107.674 58.0922C107.577 59.1015 107.538 58.9074 106.509 58.9074C105.034 58.9074 104.879 59.2373 104.704 57.7428C104.529 56.3648 104.743 55.802 103.19 55.6079C101.211 55.375 99.2502 55.472 97.7751 57.0053C94.9609 59.936 94.9803 65.8751 96.3777 69.4464C98.0857 73.8328 102.918 73.464 106.509 71.8143C106.664 72.5518 107.557 74.6285 107.285 75.2884C106.82 76.3947 102.297 76.5888 101.288 76.5888Z" fill="#1A1A1A"/>
<path d="M154.973 89.9616V89.0882H156.429V78.0057H154.973V77.1517H159.068V78.0057H157.593V89.0882H159.068V89.9616H154.973Z" fill="#1A1A1A"/>
<path d="M166.541 89.9615V89.1852H167.802V84.857C167.802 83.8283 167.628 83.052 167.278 82.5473C166.929 82.0427 166.308 81.771 165.415 81.771C164.969 81.771 164.522 81.7904 164.056 81.8486C163.591 81.9068 163.164 81.9651 162.775 82.0427V89.1852H164.018V89.9615H160.407V89.1852H161.669V82.295H160.466V81.5187C160.796 81.441 161.145 81.3634 161.533 81.2858C161.921 81.2081 162.329 81.1111 162.756 81.0529C163.183 80.9752 163.649 80.917 164.115 80.8588C164.58 80.8199 165.066 80.7811 165.551 80.7811C166.715 80.7811 167.569 81.1111 168.132 81.7516C168.676 82.3921 168.967 83.3431 168.967 84.5659V89.1852H170.209V89.9615H166.599H166.541Z" fill="#1A1A1A"/>
<path d="M180.03 81.868L176.595 90.0392H175.508L172.208 81.868H170.966V81.0917H174.867V81.868H173.431L176.109 88.6611L178.827 81.868H177.352V81.0917H181.272V81.868H180.03Z" fill="#1A1A1A"/>
<path d="M189.016 83.5955C188.919 83.2074 188.783 82.858 188.57 82.5863C188.356 82.2951 188.104 82.0816 187.774 81.9264C187.444 81.7711 187.056 81.6935 186.609 81.6935C186.202 81.6935 185.833 81.7711 185.484 81.8876C185.134 82.0234 184.843 82.2175 184.571 82.4892C184.319 82.761 184.106 83.0909 183.95 83.4985C183.795 83.8867 183.698 84.3719 183.659 84.8959H189.133C189.133 84.4301 189.113 84.0031 189.016 83.5955ZM189.773 85.6917C189.443 85.6917 189.074 85.6917 188.706 85.6917H183.659C183.659 86.2157 183.718 86.6815 183.834 87.1279C183.95 87.5743 184.125 87.9431 184.377 88.2731C184.61 88.603 184.94 88.8553 185.328 89.03C185.717 89.2241 186.182 89.3017 186.726 89.3017C187.075 89.3017 187.444 89.2629 187.852 89.1659C188.259 89.0688 188.647 88.933 189.016 88.7389L189.23 89.5346C188.822 89.7675 188.376 89.9228 187.91 90.0393C187.444 90.1557 187.017 90.1945 186.648 90.1945C185.911 90.1945 185.27 90.0781 184.746 89.8452C184.222 89.6123 183.795 89.2823 183.465 88.8553C183.135 88.4283 182.902 87.9431 182.747 87.3414C182.592 86.7592 182.514 86.1187 182.514 85.4394C182.514 84.6436 182.631 83.9449 182.844 83.3432C183.058 82.7415 183.349 82.2563 183.718 81.8681C184.086 81.48 184.513 81.1888 185.018 81.0142C185.523 80.8201 186.066 80.723 186.629 80.723C187.269 80.723 187.813 80.8395 188.259 81.0336C188.725 81.2471 189.094 81.5382 189.385 81.9264C189.676 82.3145 189.89 82.7609 190.025 83.3044C190.161 83.8284 190.219 84.4301 190.2 85.0706L189.792 85.6529L189.773 85.6917Z" fill="#1A1A1A"/>
<path d="M197.634 88.8553C197.401 89.2047 197.11 89.4958 196.76 89.6899C196.411 89.884 196.023 90.0393 195.596 90.1169C195.169 90.1946 194.761 90.2334 194.392 90.2334C193.888 90.2334 193.441 90.1946 193.034 90.1169C192.626 90.0393 192.277 89.9422 191.986 89.8452L192.121 87.6714H192.878L193.014 89.2047C193.208 89.2629 193.422 89.3017 193.635 89.3406C193.849 89.3794 194.062 89.3988 194.315 89.3988C194.645 89.3988 194.955 89.3794 195.246 89.3212C195.537 89.2629 195.809 89.1659 196.042 89.0106C196.275 88.8553 196.469 88.6807 196.605 88.4478C196.741 88.2148 196.818 87.9237 196.818 87.5938C196.818 87.4191 196.78 87.2444 196.702 87.0891C196.624 86.9339 196.488 86.7786 196.294 86.6039C196.12 86.468 195.906 86.3322 195.654 86.2157C195.402 86.0993 195.149 85.9828 194.878 85.8664C194.606 85.7499 194.334 85.6335 194.062 85.517C193.791 85.4006 193.558 85.2647 193.344 85.1094C192.684 84.6436 192.354 84.0225 192.354 83.2462C192.354 82.8774 192.432 82.5475 192.587 82.2369C192.743 81.9264 192.937 81.6741 193.189 81.4606C193.441 81.2471 193.732 81.0724 194.082 80.9753C194.431 80.8589 194.78 80.8007 195.169 80.8007C195.576 80.8007 196.003 80.8395 196.43 80.9365C196.857 81.0142 197.226 81.1306 197.537 81.2665L197.401 83.3626H196.663L196.508 81.8099C196.1 81.7129 195.712 81.6741 195.305 81.6741C194.742 81.6741 194.295 81.8293 193.965 82.1205C193.635 82.4116 193.48 82.7998 193.48 83.2462C193.48 83.4791 193.558 83.712 193.713 83.9449C193.868 84.1778 194.14 84.3913 194.528 84.5854C194.78 84.7212 195.013 84.8183 195.227 84.9153C195.44 85.0124 195.634 85.09 195.829 85.1871C196.023 85.2647 196.197 85.3423 196.391 85.4394C196.566 85.5364 196.76 85.6335 196.954 85.7693C197.653 86.2351 198.002 86.8368 198.002 87.5938C198.002 88.1372 197.886 88.603 197.653 88.9524" fill="#1A1A1A"/>
<path d="M204.912 90.0197C204.718 90.0585 204.524 90.0973 204.33 90.1168C204.136 90.1556 203.942 90.175 203.767 90.1944C203.592 90.2138 203.437 90.2138 203.321 90.2138C202.952 90.2138 202.622 90.175 202.292 90.0973C201.962 90.0197 201.69 89.8644 201.457 89.6315C201.225 89.3986 201.03 89.0687 200.875 88.6417C200.739 88.2147 200.662 87.6518 200.662 86.9337V81.8874H199.09V81.3245L200.662 81.1693V78.5879L201.555 78.5491L201.729 81.111H205.048V81.9068H201.787V86.8755C201.787 87.3801 201.826 87.7877 201.904 88.0982C201.982 88.4088 202.098 88.6611 202.234 88.8552C202.37 89.0493 202.544 89.1657 202.758 89.2434C202.971 89.321 203.204 89.3598 203.495 89.3598C203.728 89.3598 204 89.3404 204.349 89.3016C204.699 89.2628 205.009 89.2045 205.281 89.1269L205.417 89.8838C205.262 89.9421 205.087 89.9809 204.893 90.0391" fill="#1A1A1A"/>
<path d="M219.702 89.9618V84.8378C219.702 83.7897 219.527 83.0328 219.158 82.5088C218.789 82.0041 218.168 81.7518 217.295 81.7518C216.849 81.7518 216.383 81.81 215.917 81.9265C215.432 82.0429 214.947 82.2564 214.461 82.567C214.597 82.8775 214.675 83.1881 214.733 83.518C214.791 83.848 214.811 84.1779 214.811 84.5079V89.1466H216.053V89.9229H213.704V84.799C213.704 83.7703 213.53 82.994 213.161 82.4894C212.812 81.9847 212.19 81.713 211.336 81.713C210.909 81.713 210.463 81.7324 210.017 81.7906C209.57 81.8489 209.143 81.9071 208.774 81.9847V89.1272H210.017V89.9035H206.387V89.1272H207.649V82.237H206.387V81.4607C206.698 81.383 207.067 81.3054 207.435 81.2278C207.804 81.1501 208.231 81.0531 208.658 80.9949C209.104 80.9172 209.551 80.859 210.017 80.8008C210.482 80.762 210.968 80.7231 211.453 80.7231C212.035 80.7231 212.52 80.8008 212.928 80.9755C213.336 81.1501 213.666 81.383 213.918 81.6548C214.52 81.3054 215.121 81.0725 215.703 80.9172C216.286 80.7814 216.868 80.7037 217.431 80.7037C218.595 80.7037 219.449 81.0337 219.993 81.6548C220.556 82.2953 220.827 83.2269 220.827 84.4691V89.0884H222.07V89.8647H219.721L219.702 89.9618Z" fill="#1A1A1A"/>
<path d="M230.085 83.5955C229.988 83.2074 229.852 82.858 229.639 82.5863C229.425 82.2951 229.173 82.0816 228.843 81.9264C228.533 81.7711 228.125 81.6935 227.679 81.6935C227.271 81.6935 226.902 81.7711 226.553 81.8876C226.203 82.0234 225.912 82.2175 225.641 82.4892C225.388 82.761 225.175 83.0909 225.02 83.4985C224.864 83.8867 224.767 84.3719 224.728 84.8959H230.202C230.202 84.4301 230.182 84.0031 230.085 83.5955ZM230.823 85.6917C230.493 85.6917 230.124 85.6917 229.755 85.6917H224.709C224.709 86.2157 224.767 86.6815 224.884 87.1279C225 87.5743 225.175 87.9431 225.427 88.2731C225.66 88.603 225.99 88.8553 226.378 89.03C226.766 89.2241 227.232 89.3017 227.795 89.3017C228.144 89.3017 228.513 89.2629 228.921 89.1659C229.328 89.0688 229.716 88.933 230.085 88.7389L230.299 89.5346C229.891 89.7675 229.445 89.9228 228.979 90.0393C228.513 90.1557 228.086 90.1945 227.717 90.1945C226.98 90.1945 226.339 90.0781 225.815 89.8452C225.291 89.6123 224.864 89.2823 224.534 88.8553C224.204 88.4283 223.971 87.9431 223.816 87.3414C223.661 86.7592 223.583 86.1187 223.583 85.4394C223.583 84.6436 223.7 83.9449 223.913 83.3432C224.127 82.7415 224.418 82.2563 224.787 81.8681C225.155 81.48 225.602 81.1888 226.087 81.0142C226.592 80.8201 227.135 80.723 227.698 80.723C228.338 80.723 228.882 80.8395 229.328 81.0336C229.794 81.2471 230.163 81.5382 230.454 81.9264C230.745 82.3145 230.959 82.7609 231.094 83.3044C231.23 83.8284 231.289 84.4301 231.269 85.0706L230.862 85.6529L230.823 85.6917Z" fill="#1A1A1A"/>
<path d="M238.858 89.9615V89.1852H240.12V84.857C240.12 83.8283 239.945 83.052 239.595 82.5473C239.246 82.0427 238.625 81.771 237.732 81.771C237.286 81.771 236.839 81.7904 236.374 81.8486C235.908 81.9068 235.481 81.9651 235.093 82.0427V89.1852H236.335V89.9615H232.705V89.1852H233.967V82.295H232.764V81.5187C233.093 81.441 233.443 81.3634 233.812 81.2858C234.2 81.2081 234.607 81.1111 235.034 81.0529C235.461 80.9752 235.927 80.917 236.393 80.8588C236.859 80.8199 237.344 80.7811 237.829 80.7811C238.994 80.7811 239.867 81.1111 240.411 81.7516C240.954 82.3921 241.245 83.3431 241.245 84.5659V89.1852H242.487V89.9615H238.877H238.858Z" fill="#1A1A1A"/>
<path d="M249.009 90.0197C248.815 90.0585 248.621 90.0973 248.427 90.1168C248.233 90.1556 248.039 90.175 247.864 90.1944C247.689 90.2138 247.534 90.2138 247.418 90.2138C247.068 90.2138 246.719 90.175 246.408 90.0973C246.078 90.0197 245.807 89.8644 245.574 89.6315C245.341 89.3986 245.147 89.0687 244.991 88.6417C244.856 88.2147 244.778 87.6518 244.778 86.9337V81.8874H243.206V81.3245L244.778 81.1693V78.5879L245.671 78.5491L245.845 81.111H249.164V81.9068H245.904V86.8755C245.904 87.3801 245.942 87.7877 246.02 88.0982C246.098 88.4088 246.214 88.6611 246.35 88.8552C246.486 89.0493 246.661 89.1657 246.874 89.2434C247.088 89.321 247.32 89.3598 247.612 89.3598C247.845 89.3598 248.116 89.3404 248.466 89.3016C248.815 89.2628 249.126 89.2045 249.397 89.1269L249.533 89.8838C249.378 89.9421 249.203 89.9809 249.009 90.0391" fill="#1A1A1A"/>
<path d="M265.157 79.966H264.303L264.031 78.1998H261.159V89.0882H262.576V89.9616H258.577V89.0882H259.994V78.1998H257.277L256.889 79.966H256.035L256.093 77.1517H265.254L265.157 79.966Z" fill="#1A1A1A"/>
<path d="M272.746 82.5863C272.241 81.9846 271.523 81.6935 270.592 81.6935C269.66 81.6935 268.942 81.9846 268.437 82.5863C267.933 83.1879 267.68 84.1584 267.68 85.4976C267.68 86.8368 267.933 87.8073 268.437 88.4089C268.942 89.0106 269.66 89.3017 270.592 89.3017C271.523 89.3017 272.241 89.0106 272.746 88.4089C273.251 87.8073 273.503 86.8368 273.503 85.4976C273.503 84.1584 273.251 83.1879 272.746 82.5863ZM274.357 87.5938C274.163 88.176 273.891 88.6807 273.522 89.0688C273.173 89.457 272.746 89.7481 272.241 89.9422C271.737 90.1363 271.193 90.2334 270.572 90.2334C269.951 90.2334 269.408 90.1363 268.903 89.9422C268.418 89.7481 267.991 89.457 267.622 89.0688C267.273 88.6807 266.982 88.1954 266.807 87.5938C266.613 87.0115 266.516 86.2934 266.516 85.4976C266.516 84.7018 266.613 83.9837 266.807 83.4014C267.001 82.7998 267.273 82.3145 267.622 81.9264C267.972 81.5382 268.399 81.2471 268.903 81.053C269.408 80.8589 269.951 80.7618 270.572 80.7618C271.193 80.7618 271.737 80.8589 272.241 81.053C272.746 81.2471 273.173 81.5382 273.522 81.9264C273.872 82.3145 274.144 82.7998 274.357 83.4014C274.551 83.9837 274.648 84.7018 274.648 85.4976C274.648 86.2934 274.551 87.0115 274.357 87.5938Z" fill="#1A1A1A"/>
<path d="M289.981 84.2165C289.321 83.7896 288.389 83.5955 287.225 83.5955H284.818V89.0299C285.168 89.0299 285.556 89.0299 285.983 89.0494C286.41 89.0494 286.778 89.0494 287.07 89.0494C287.671 89.0494 288.215 89.0105 288.7 88.9135C289.185 88.8164 289.593 88.6612 289.942 88.4477C290.291 88.2342 290.544 87.943 290.718 87.5937C290.893 87.2443 290.99 86.8173 290.99 86.2933C290.99 85.3423 290.66 84.6435 290 84.236M290.136 79.1508C289.962 78.8209 289.729 78.5686 289.438 78.3745C289.146 78.1804 288.797 78.0445 288.409 77.9669C288.001 77.8893 287.574 77.8504 287.128 77.8504C286.778 77.8504 286.39 77.8504 286.002 77.8504C285.614 77.8504 285.226 77.9087 284.838 77.9669V82.625H287.186C287.458 82.625 287.749 82.625 288.04 82.6444C288.331 82.6638 288.603 82.7027 288.836 82.7415C289.36 82.4503 289.748 82.101 290.02 81.6934C290.291 81.2858 290.408 80.82 290.408 80.3348C290.408 79.8496 290.33 79.4614 290.156 79.1314M291.844 88.0013C291.611 88.4865 291.262 88.8553 290.816 89.1464C290.369 89.4375 289.845 89.651 289.224 89.7869C288.603 89.9228 287.904 90.0004 287.147 90.0004C285.692 90.0004 284.042 89.981 282.159 89.9422V89.0882H283.634V78.0639H282.159V77.21C282.489 77.1711 282.858 77.1323 283.265 77.0935C283.673 77.0547 284.1 77.0159 284.527 76.977C284.973 76.9382 285.4 76.9382 285.847 76.8994C286.293 76.8994 286.74 76.88 287.167 76.88C287.749 76.88 288.312 76.9382 288.836 77.0353C289.36 77.1323 289.826 77.3264 290.233 77.5787C290.641 77.831 290.951 78.1804 291.184 78.6074C291.417 79.0344 291.553 79.5778 291.553 80.2377C291.553 80.8394 291.398 81.3634 291.126 81.8293C290.854 82.2951 290.447 82.7221 289.923 83.052C290.621 83.2849 291.165 83.6731 291.592 84.1777C292.019 84.6824 292.232 85.3811 292.232 86.2739C292.232 86.9532 292.097 87.5355 291.864 88.0207" fill="#1A1A1A"/>
<path d="M300.617 83.5955C300.52 83.2074 300.384 82.858 300.171 82.5863C299.957 82.2951 299.705 82.0816 299.375 81.9264C299.045 81.7711 298.657 81.6935 298.21 81.6935C297.803 81.6935 297.434 81.7711 297.085 81.8876C296.735 82.0234 296.444 82.2175 296.172 82.4892C295.92 82.761 295.707 83.0909 295.551 83.4985C295.396 83.8867 295.299 84.3719 295.26 84.8959H300.734C300.734 84.4301 300.714 84.0031 300.617 83.5955ZM301.355 85.6917C301.025 85.6917 300.656 85.6917 300.287 85.6917H295.241C295.241 86.2157 295.299 86.6815 295.416 87.1279C295.532 87.5743 295.707 87.9431 295.959 88.2731C296.211 88.603 296.522 88.8553 296.91 89.03C297.298 89.2241 297.764 89.3017 298.307 89.3017C298.657 89.3017 299.026 89.2629 299.433 89.1659C299.841 89.0688 300.229 88.933 300.598 88.7389L300.811 89.5346C300.404 89.7675 299.957 89.9228 299.491 90.0393C299.026 90.1557 298.599 90.1945 298.23 90.1945C297.492 90.1945 296.852 90.0781 296.328 89.8452C295.804 89.6123 295.377 89.2823 295.047 88.8553C294.717 88.4283 294.484 87.9431 294.329 87.3414C294.173 86.7592 294.096 86.1187 294.096 85.4394C294.096 84.6436 294.212 83.9449 294.426 83.3432C294.639 82.7415 294.93 82.2563 295.299 81.8681C295.668 81.48 296.114 81.1888 296.599 81.0142C297.104 80.8201 297.648 80.723 298.21 80.723C298.851 80.723 299.394 80.8395 299.86 81.0336C300.326 81.2471 300.695 81.5382 300.986 81.9264C301.277 82.3145 301.49 82.7609 301.626 83.3044C301.762 83.8284 301.82 84.4301 301.801 85.0706L301.393 85.6529L301.355 85.6917Z" fill="#1A1A1A"/>
<path d="M317.93 79.966H317.076L316.804 78.1998H313.931V89.0882H315.348V89.9616H311.35V89.0882H312.767V78.1998H310.05L309.661 79.966H308.807L308.866 77.1517H318.027L317.93 79.966Z" fill="#1A1A1A"/>
<path d="M324.723 82.9162H323.966L323.869 81.7517C323.383 81.7517 322.918 81.8487 322.491 82.004C322.044 82.1593 321.675 82.4892 321.365 82.955V89.1659H322.898V89.9422H318.997V89.1659H320.259V81.8681H318.997V81.0918H321.21L321.287 81.9458C321.695 81.4606 322.122 81.1306 322.627 80.9947C323.131 80.8395 323.675 80.7618 324.257 80.7618H324.587C324.703 80.7618 324.82 80.7618 324.917 80.8007L324.781 82.9162H324.723Z" fill="#1A1A1A"/>
<path d="M332.583 90.1169C331.865 90.1946 331.186 90.2334 330.545 90.2334C329.381 90.2334 328.527 89.9228 328.003 89.2629C327.479 88.6224 327.207 87.6714 327.207 86.4098V81.8682H325.907V81.0724H328.333V86.1575C328.333 87.1862 328.508 87.9431 328.837 88.4672C329.187 88.9718 329.789 89.2435 330.681 89.2435C331.128 89.2435 331.594 89.2435 332.079 89.1853C332.564 89.1465 332.991 89.1077 333.36 89.03V81.8487H332.059V81.053H334.485V89.8064C333.942 89.9034 333.321 90.0005 332.603 90.0781" fill="#1A1A1A"/>
<path d="M342.657 88.8553C342.424 89.2047 342.133 89.4958 341.783 89.6899C341.434 89.884 341.046 90.0393 340.619 90.1169C340.192 90.1946 339.784 90.2334 339.415 90.2334C338.911 90.2334 338.464 90.1946 338.057 90.1169C337.649 90.0393 337.3 89.9422 336.989 89.8452L337.145 87.6714H337.901L338.037 89.2047C338.251 89.2629 338.445 89.3017 338.658 89.3406C338.872 89.3794 339.105 89.3988 339.357 89.3988C339.687 89.3988 339.998 89.3794 340.289 89.3212C340.58 89.2629 340.852 89.1659 341.085 89.0106C341.317 88.8553 341.512 88.6807 341.647 88.4478C341.783 88.2148 341.861 87.9237 341.861 87.5938C341.861 87.4191 341.822 87.2444 341.744 87.0891C341.667 86.9339 341.531 86.7786 341.337 86.6039C341.162 86.468 340.949 86.3322 340.696 86.2157C340.444 86.0993 340.192 85.9828 339.92 85.8664C339.648 85.7499 339.377 85.6335 339.124 85.517C338.852 85.4006 338.62 85.2647 338.387 85.1094C337.727 84.6436 337.397 84.0225 337.397 83.2462C337.397 82.8774 337.474 82.5475 337.61 82.2369C337.766 81.9264 337.96 81.6741 338.212 81.4606C338.464 81.2471 338.755 81.0724 339.105 80.9753C339.454 80.8589 339.804 80.8007 340.192 80.8007C340.619 80.8007 341.026 80.8395 341.453 80.9365C341.88 81.0336 342.249 81.1306 342.56 81.2665L342.424 83.3626H341.686L341.531 81.8099C341.123 81.7129 340.716 81.6741 340.328 81.6741C339.765 81.6741 339.318 81.8293 338.988 82.1205C338.658 82.4116 338.503 82.7998 338.503 83.2462C338.503 83.4791 338.581 83.712 338.736 83.9449C338.891 84.1778 339.163 84.3913 339.551 84.5854C339.804 84.7212 340.036 84.8183 340.25 84.9153C340.463 85.0124 340.658 85.09 340.852 85.1871C341.046 85.2647 341.22 85.3423 341.414 85.4394C341.589 85.5364 341.783 85.6335 341.997 85.7693C342.695 86.2351 343.045 86.8368 343.045 87.5938C343.045 88.1372 342.928 88.603 342.695 88.9524" fill="#1A1A1A"/>
<path d="M349.935 90.0197C349.741 90.0585 349.547 90.0973 349.353 90.1168C349.159 90.1556 348.965 90.175 348.79 90.1944C348.615 90.2138 348.46 90.2138 348.344 90.2138C347.994 90.2138 347.645 90.175 347.334 90.0973C347.004 90.0197 346.733 89.8644 346.5 89.6315C346.267 89.3986 346.073 89.0687 345.937 88.6417C345.782 88.2147 345.723 87.6518 345.723 86.9337V81.8874H344.151V81.3245L345.723 81.1693V78.5879L346.616 78.5491L346.791 81.111H350.11V81.9068H346.849V86.8755C346.849 87.3801 346.888 87.7877 346.966 88.0982C347.043 88.4088 347.16 88.6611 347.296 88.8552C347.431 89.0493 347.606 89.1657 347.82 89.2434C348.033 89.321 348.266 89.3598 348.538 89.3598C348.771 89.3598 349.042 89.3404 349.392 89.3016C349.741 89.2628 350.052 89.2045 350.323 89.1269L350.459 89.8838C350.304 89.9421 350.129 89.9809 349.935 90.0391" fill="#1A1A1A"/>
<path d="M358.281 83.5955C358.184 83.2074 358.048 82.858 357.834 82.5863C357.64 82.2951 357.368 82.0816 357.038 81.9264C356.728 81.7711 356.32 81.6935 355.874 81.6935C355.466 81.6935 355.098 81.7711 354.748 81.8876C354.399 82.0234 354.108 82.2175 353.836 82.4892C353.584 82.761 353.37 83.0909 353.215 83.4985C353.06 83.8867 352.963 84.3719 352.924 84.8959H358.397C358.397 84.4301 358.378 84.0031 358.281 83.5955ZM359.018 85.6917C358.688 85.6917 358.319 85.6917 357.951 85.6917H352.904C352.904 86.2157 352.963 86.6815 353.079 87.1279C353.196 87.5743 353.37 87.9431 353.623 88.2731C353.855 88.603 354.185 88.8553 354.574 89.03C354.962 89.2241 355.428 89.3017 355.99 89.3017C356.34 89.3017 356.709 89.2629 357.116 89.1659C357.524 89.0688 357.912 88.933 358.281 88.7389L358.494 89.5346C358.087 89.7675 357.64 89.9228 357.174 90.0393C356.709 90.1557 356.282 90.1945 355.893 90.1945C355.156 90.1945 354.515 90.0781 353.991 89.8452C353.467 89.6123 353.04 89.2823 352.71 88.8553C352.38 88.4283 352.147 87.9431 351.992 87.3414C351.837 86.7592 351.759 86.1187 351.759 85.4394C351.759 84.6436 351.876 83.9449 352.089 83.3432C352.303 82.7415 352.594 82.2563 352.963 81.8681C353.331 81.48 353.778 81.1888 354.263 81.0142C354.768 80.8201 355.311 80.723 355.874 80.723C356.514 80.723 357.058 80.8395 357.504 81.0336C357.97 81.2471 358.339 81.5382 358.63 81.9264C358.921 82.3145 359.135 82.7609 359.27 83.3044C359.406 83.8284 359.465 84.4301 359.445 85.0706L359.038 85.6529L359.018 85.6917Z" fill="#1A1A1A"/>
<path d="M367.675 82.1204C367.403 81.9845 367.092 81.8875 366.743 81.8099C366.413 81.7322 366.064 81.6934 365.714 81.6934C365.229 81.6934 364.783 81.771 364.375 81.9263C363.968 82.0816 363.618 82.3145 363.308 82.6056C363.017 82.9162 362.784 83.3043 362.628 83.7896C362.473 84.2554 362.376 84.8376 362.376 85.4975C362.376 86.1574 362.454 86.7203 362.628 87.1861C362.784 87.6519 363.017 88.0401 363.288 88.3506C363.56 88.6418 363.89 88.8747 364.239 89.0105C364.608 89.1464 364.996 89.224 365.404 89.224C365.831 89.224 366.238 89.1464 366.646 88.9717C367.034 88.797 367.384 88.5835 367.694 88.3118V82.1398L367.675 82.1204ZM367.83 89.9616L367.791 89.3599C367.481 89.6122 367.112 89.8063 366.665 89.981C366.219 90.1363 365.753 90.2333 365.268 90.2333C364.686 90.2333 364.162 90.1363 363.676 89.9422C363.191 89.7481 362.764 89.4569 362.396 89.0688C362.027 88.6806 361.755 88.1954 361.542 87.5937C361.328 86.992 361.231 86.2933 361.231 85.4781C361.231 84.663 361.347 83.9836 361.58 83.382C361.813 82.7803 362.124 82.2951 362.512 81.9069C362.9 81.5187 363.366 81.2276 363.909 81.0335C364.453 80.8394 365.035 80.7424 365.695 80.7424C366.044 80.7424 366.394 80.7812 366.724 80.8394C367.073 80.8976 367.384 80.9947 367.675 81.1305V77.7146H366.394V76.9188H368.781V89.127H370.004V89.9034H367.83V89.9616Z" fill="#1A1A1A"/>
</svg>
